<svg xmlns:inkscape="http://www.inkscape.org/namespaces/inkscape" xmlns:sodipodi="http://sodipodi.sourceforge.net/DTD/sodipodi-0.dtd" xmlns="http://www.w3.org/2000/svg" xmlns:svg="http://www.w3.org/2000/svg" version="1.1" id="svg151" sodipodi:docname="make-it-minimalist--but-keep-the-owl-robot-vessel-.svg" inkscape:version="1.3.2 (091e20e, 2023-11-25)" viewBox="69.89 26.98 415.77 491.68">
  <sodipodi:namedview id="namedview151" pagecolor="#ffffff" bordercolor="#000000" borderopacity="0.25" inkscape:showpageshadow="2" inkscape:pageopacity="0.0" inkscape:pagecheckerboard="0" inkscape:deskcolor="#d1d1d1" inkscape:zoom="0.42522523" inkscape:cx="276.32415" inkscape:cy="277.5" inkscape:window-width="1312" inkscape:window-height="449" inkscape:window-x="0" inkscape:window-y="38" inkscape:window-maximized="0" inkscape:current-layer="svg151"/>
  <path fill="#F79B37" transform="scale(0.542759 0.542759)" d="M756.454 831.334C767.046 849.721 781.408 866.059 793.16 883.724Q793.146 892.118 793.461 900.507C792.317 900.238 791.761 899.705 791.055 898.799C787.664 894.446 784.884 889.203 781.915 884.527C774.675 873.123 765.064 857.716 756.569 847.453Q756.373 839.394 756.454 831.334Z" id="path2"/>
  <path fill="#142D54" transform="scale(0.542759 0.542759)" d="M872.873 775.904C880.306 784.343 887.162 793.364 894.79 801.608C887.754 810.933 881.339 820.969 874.036 830.043C871.931 825.478 872.914 783.772 872.873 775.904Z" id="path3"/>
  <path fill="#F79B37" transform="scale(0.542759 0.542759)" d="M168.623 833.727C171.287 838.243 174.992 842.45 178.234 846.579L195.465 868.442C198.378 872.14 201.722 876.048 204.029 880.148C204.031 887.973 204.258 895.868 203.992 903.685C199.832 899.863 196.463 893.83 193.228 889.153C185.156 877.482 177.448 865.201 168.59 854.121Q168.393 843.924 168.623 833.727Z" id="path4"/>
  <path fill="#1E4E74" transform="scale(0.542759 0.542759)" d="M173.415 680.462Q195.214 680.224 217.014 680.332C216.975 686.313 216.592 692.566 217.197 698.518L173.44 698.649L173.415 680.462Z" id="path5"/>
  <path fill="#FAFBFB" transform="scale(0.542759 0.542759)" d="M173.446 699.056L217.129 699.048C217.545 705.041 217.387 711.11 217.271 717.115C202.714 717.637 188.042 717.146 173.465 717.262C173.377 711.198 173.449 705.122 173.446 699.056Z" id="path6"/>
  <path fill="#FC852D" transform="scale(0.542759 0.542759)" d="M855.554 831.092Q855.718 842.981 855.577 854.87C851.86 860.266 821.891 904.73 820.134 905.391C819.637 896.262 820.046 886.909 820.039 877.754C828.443 867.659 836.3 856.717 844.104 846.139C847.773 841.165 851.295 835.555 855.554 831.092Z" id="path7"/>
  <path fill="#D6D7D2" transform="scale(0.542759 0.542759)" d="M812.013 654.916Q831.016 655.064 850.02 655.007L850.044 680.475L811.923 680.599Q811.894 667.757 812.013 654.916Z" id="path8"/>
  <path fill="#FAFBFB" transform="scale(0.542759 0.542759)" d="M173.416 654.105L201.502 654.043C206.503 654.038 212.23 653.526 217.119 654.445C217.698 662.668 217.927 671.82 217.165 680.034C202.475 679.612 187.702 679.959 173.003 679.999C172.942 673.256 171.854 660.404 173.416 654.105Z" id="path9"/>
  <path fill="#FAFBFB" transform="scale(0.542759 0.542759)" d="M811.959 654.553L812.013 654.916Q811.894 667.758 811.923 680.599C796.499 680.529 781.085 681.032 765.671 680.966C766.84 672.677 765.991 663.267 765.934 654.852C768.028 654.819 770.118 654.694 772.21 654.587C785.453 654.56 798.717 654.381 811.959 654.553Z" id="path10"/>
  <path fill="#FAFBFB" transform="scale(0.542759 0.542759)" d="M812.51 698.413L850.077 698.504L849.985 715.011L812.881 714.977Q797.551 714.868 782.221 714.983C776.781 714.995 770.767 715.462 765.411 714.561L765.04 714.551L764.999 698.527L812.51 698.413Z" id="path11"/>
  <path fill="#D6D7D2" transform="scale(0.542759 0.542759)" d="M812.51 698.413L850.077 698.504L849.985 715.011L812.881 714.977Q797.551 714.868 782.221 714.983C776.781 714.995 770.767 715.462 765.411 714.561C770.425 714.025 775.895 714.399 780.964 714.397L812.709 714.504C812.508 709.152 812.562 703.769 812.51 698.413Z" id="path12"/>
  <path fill="#1FA8B4" transform="scale(0.542759 0.542759)" d="M173.529 598.433C188.053 612.999 201.505 628.536 216.792 642.344C217.749 646.236 216.813 650.465 217.374 654.427L217.119 654.445C212.23 653.526 206.503 654.038 201.502 654.043L173.416 654.105Q173.615 626.269 173.529 598.433Z" id="path13"/>
  <path fill="#077A8E" transform="scale(0.542759 0.542759)" d="M257.995 536.941L258.361 536.825L258.517 654.821C244.841 654.792 231.028 655.132 217.374 654.427C216.813 650.465 217.749 646.236 216.792 642.344L217.207 641.593Q228.889 629.244 240.789 617.105C246.579 611.229 252.644 605.496 258.037 599.251L257.978 546.082L257.995 536.941Z" id="path14"/>
  <path fill="#142D54" transform="scale(0.542759 0.542759)" d="M850.044 680.475L850.05 698.085L764.933 698.059C765.009 692.613 764.521 686.276 765.671 680.966C781.085 681.032 796.499 680.529 811.923 680.599L850.044 680.475Z" id="path15"/>
  <path fill="#0E6A83" transform="scale(0.542759 0.542759)" d="M849.933 593.091L849.999 654.573L811.959 654.553C812.037 649.61 812.585 643.815 811.717 638.959L812.66 637.495C824.989 622.658 837.968 608.198 849.933 593.091Z" id="path16"/>
  <path fill="#0A1D45" transform="scale(0.542759 0.542759)" d="M720.755 802.242C727.397 793.844 734.548 785.856 741.328 777.57C745.833 772.064 750.312 765.124 755.556 760.391Q755.363 795.871 756.454 831.334Q756.373 839.394 756.569 847.453Q738.876 824.678 720.755 802.242Z" id="path17"/>
  <path fill="#B53142" transform="scale(0.542759 0.542759)" d="M849.985 715.011L869.693 715.057L869.787 742.342C865.443 742.394 861.094 742.495 856.751 742.487L806.974 742.391L800.234 742.346C804.446 741.732 808.809 741.94 813.059 741.947L812.881 714.977L849.985 715.011Z" id="path18"/>
  <path fill="#1FA8B4" transform="scale(0.542759 0.542759)" d="M766.201 560.614Q766.447 577.208 766.361 593.804C773.36 601.256 805.498 636.044 811.717 638.959C812.585 643.815 812.037 649.61 811.959 654.553C798.717 654.381 785.453 654.56 772.21 654.587L765.963 654.38L766.201 560.614Z" id="path19"/>
  <path fill="#0A1D45" transform="scale(0.542759 0.542759)" d="M268.937 757.813L269.706 757.684C275.75 763.542 280.8 770.981 285.966 777.637C292.69 786.299 299.808 794.88 305.843 804.033Q294.89 817.685 284.268 831.596C279.164 838.322 274.183 845.755 268.322 851.834C269.528 829.544 268.624 806.76 268.59 784.424C268.577 775.831 267.735 766.298 268.937 757.813Z" id="path20"/>
  <path fill="#D6D7D2" transform="scale(0.542759 0.542759)" d="M217.374 654.427C231.028 655.132 244.841 654.792 258.517 654.821C258.518 663.23 258.62 671.652 258.49 680.059L258.493 698.896L217.511 698.858L217.197 698.518C216.592 692.566 216.975 686.313 217.014 680.332L217.165 680.034C217.927 671.82 217.698 662.668 217.119 654.445L217.374 654.427Z" id="path21"/>
  <path fill="#0A1D45" transform="scale(0.542759 0.542759)" d="M217.165 680.034C230.79 680.889 244.824 680.152 258.49 680.059L258.493 698.896L217.511 698.858L217.197 698.518C216.592 692.566 216.975 686.313 217.014 680.332L217.165 680.034Z" id="path22"/>
  <path fill="#142D54" transform="scale(0.542759 0.542759)" d="M128.767 804.308C134.075 797.462 164.829 759.529 169.59 757.691Q168.688 795.704 168.623 833.727Q168.393 843.924 168.59 854.121C162.74 847.708 157.543 840.51 152.19 833.667Q140.62 818.874 128.767 804.308Z" id="path23"/>
  <defs id="defs24">
    <linearGradient id="gradient_0" gradientUnits="userSpaceOnUse" x1="321.84238" y1="596.33063" x2="266.8241" y2="591.36493">
      <stop offset="0" stop-color="#0C5D72" id="stop23"/>
      <stop offset="1" stop-color="#007E95" id="stop24"/>
    </linearGradient>
  </defs>
  <path fill="url(#gradient_0)" transform="scale(0.542759 0.542759)" d="M277.887 460.092C280.221 462.49 283.199 465.11 284.906 468.012C283.905 493.979 284.865 520.284 284.891 546.291L285.096 693.701C287.885 696.345 302.018 710.908 304.406 711.145C306.629 713.547 312.636 718.464 312.512 721.958C312.443 723.896 310.98 726.189 309.947 727.78C313.279 730.725 322.817 738.071 323.957 741.835C315.545 735.305 307.752 726.927 300.041 719.542C292.544 712.362 284.523 705.451 277.473 697.844L277.739 554.029Q277.742 537.516 277.924 521.004C277.968 514.963 278.475 508.433 277.652 502.469C279.915 489.611 278.341 473.34 277.887 460.092Z" id="path24"/>
  <path fill="#0A1D45" transform="scale(0.542759 0.542759)" d="M806.974 742.391L856.751 742.487C856.716 746.343 855.583 755.573 858.284 758.562C863.087 764.239 868.516 769.909 872.873 775.904C872.914 783.772 871.931 825.478 874.036 830.043Q864.592 842.297 855.577 854.87Q855.718 842.981 855.554 831.092C855.363 813.739 855.442 796.343 855.572 778.989C855.604 774.666 856.558 763.041 855.746 759.822C855.644 759.416 855.334 759.094 855.128 758.73C843.459 759.597 831.551 758.984 819.837 759.269L807.356 759.426C805.987 754.617 806.936 747.447 806.974 742.391Z" id="path25"/>
  <path fill="#DE4D49" transform="scale(0.542759 0.542759)" d="M217.511 698.858L258.493 698.896L258.33 717.08L270.75 717.187C252.973 717.792 235.002 717.481 217.211 717.326C217.212 725.69 217.435 734.122 217.09 742.476L187.596 742.524C182.165 742.528 176.349 742.902 170.973 742.133C167.548 741.785 163.923 741.982 160.473 741.959L160.448 717.196C164.784 717.37 169.127 717.292 173.465 717.262C188.042 717.146 202.714 717.637 217.271 717.115C217.387 711.11 217.545 705.041 217.129 699.048L217.511 698.858Z" id="path26"/>
  <path fill="#D6D7D2" transform="scale(0.542759 0.542759)" d="M217.511 698.858L258.493 698.896L258.33 717.08C244.693 716.748 230.91 716.921 217.271 717.115C217.387 711.11 217.545 705.041 217.129 699.048L217.511 698.858Z" id="path27"/>
  <path fill="#0A1D45" transform="scale(0.542759 0.542759)" d="M849.554 546.094L849.876 546.178C849.955 561.741 850.595 577.556 849.933 593.091C837.968 608.198 824.989 622.658 812.66 637.495C811.397 635.02 811.417 571.921 811.738 563.66L812.415 563.279C823.593 562.018 834.163 559.036 843.601 552.724C846.238 550.96 848.96 549.245 849.554 546.094Z" id="path28"/>
  <path fill="#142D54" transform="scale(0.542759 0.542759)" d="M360.223 49.7079Q382.094 91.7036 404.697 133.31L395.663 137.506C390.146 140.308 384.968 143.484 379.871 146.979C377.272 148.762 374.507 151.133 371.732 152.571C370.689 153.111 370.592 153.167 369.461 152.911C365.781 154.142 363.363 158.494 360.144 160.654C359.588 149.972 359.99 139.07 359.996 128.365C360.012 102.153 360.532 75.9167 360.223 49.7079Z" id="path29"/>
  <path fill="#DE4D49" transform="scale(0.542759 0.542759)" d="M370.072 88.7471C374.855 98.1225 380.161 107.22 385.067 116.531C388.719 123.462 391.99 130.585 395.663 137.506C390.146 140.308 384.968 143.484 379.871 146.979C377.272 148.762 374.507 151.133 371.732 152.571C370.689 153.111 370.592 153.167 369.461 152.911C368.903 143.912 369.041 134.83 369.012 125.815C368.972 113.442 368.855 101.076 370.072 88.7471Z" id="path30"/>
  <path fill="#0A1D45" transform="scale(0.542759 0.542759)" d="M257.978 546.082L258.037 599.251C252.644 605.496 246.579 611.229 240.789 617.105Q228.889 629.244 217.207 641.593C216.481 631.412 217.156 620.9 217.253 610.678Q217.488 586.343 217.034 562.011C229.427 562.053 239.336 558.466 249.319 551.414C251.965 549.544 254.863 546.985 257.978 546.082Z" id="path31"/>
  <path fill="#DE4D49" transform="scale(0.542759 0.542759)" d="M765.04 714.551L765.411 714.561C770.767 715.462 776.781 714.995 782.221 714.983Q797.551 714.868 812.881 714.977L813.059 741.947C808.809 741.94 804.446 741.732 800.234 742.346L806.974 742.391C806.936 747.447 805.987 754.617 807.356 759.426L807.11 759.55C802.586 759.407 798.021 759.526 793.493 759.519C785.453 759.522 761.79 758.612 755.595 760.047C755.649 754.202 756.007 748.361 756.031 742.501L747.61 742.631Q747.933 728.548 747.595 714.465L765.04 714.551Z" id="path32"/>
  <path fill="#0A1D45" transform="scale(0.542759 0.542759)" d="M800.234 742.346L806.974 742.391C806.936 747.447 805.987 754.617 807.356 759.426L807.11 759.55C802.586 759.407 798.021 759.526 793.493 759.519C785.453 759.522 761.79 758.612 755.595 760.047C755.649 754.202 756.007 748.361 756.031 742.501C768.518 742.49 781.07 742.748 793.549 742.415L800.234 742.346Z" id="path33"/>
  <path fill="#1E4E74" transform="scale(0.542759 0.542759)" d="M800.234 742.346L806.974 742.391C806.936 747.447 805.987 754.617 807.356 759.426L807.11 759.55C802.586 759.407 798.021 759.526 793.493 759.519L793.549 742.415L800.234 742.346Z" id="path34"/>
  <path fill="#142D54" transform="scale(0.542759 0.542759)" d="M766.102 541.268C768.109 547.197 779.674 554.906 785.218 557.671C793.695 561.898 802.365 563.198 811.738 563.66C811.417 571.921 811.397 635.02 812.66 637.495L811.717 638.959C805.498 636.044 773.36 601.256 766.361 593.804Q766.447 577.208 766.201 560.614L766.102 541.268Z" id="path35"/>
  <path fill="#1E4E74" transform="scale(0.542759 0.542759)" d="M173.498 548.556C187.302 559.017 199.958 561.687 217.034 562.011Q217.489 586.343 217.253 610.678C217.156 620.9 216.481 631.412 217.207 641.593L216.792 642.344C201.505 628.536 188.053 612.999 173.529 598.433C172.635 581.961 173.385 565.063 173.498 548.556Z" id="path36"/>
  <path fill="#B53142" transform="scale(0.542759 0.542759)" d="M270.75 717.187L277.511 717.11L277.485 742.409L268.449 742.314C268.41 745.987 267.368 754.982 269.706 757.684L268.937 757.813C262.777 756.226 238.208 757.418 229.683 757.091C221.254 757.008 212.796 756.786 204.37 757.045C193.224 757.422 181.755 757.512 170.609 757.077C171.384 752.253 170.995 747.015 170.973 742.133C176.349 742.902 182.165 742.528 187.596 742.524L217.09 742.476C217.435 734.122 217.212 725.69 217.211 717.326C235.002 717.481 252.973 717.792 270.75 717.187Z" id="path37"/>
  <path fill="#06113D" transform="scale(0.542759 0.542759)" d="M217.09 742.476L249.717 742.269C255.924 742.234 262.256 741.939 268.449 742.314C268.41 745.987 267.368 754.982 269.706 757.684L268.937 757.813C262.777 756.226 238.208 757.418 229.683 757.091C221.254 757.008 212.796 756.786 204.37 757.045C193.224 757.422 181.755 757.512 170.609 757.077C171.384 752.253 170.995 747.015 170.973 742.133C176.349 742.902 182.165 742.528 187.596 742.524L217.09 742.476Z" id="path38"/>
  <path fill="#DE4D49" transform="scale(0.542759 0.542759)" d="M409.958 807.65C409.682 823.422 408.647 834.402 416.914 848.443C416.91 850.196 418.859 852.049 420.03 853.196C425.169 858.23 432.586 861.938 439.784 862.25C439.862 866.837 440.896 881.088 439.662 884.707C420.028 884.424 400.379 885.051 380.748 884.606C380.283 876.015 380.638 867.227 380.628 858.618L380.455 807.966C390.042 808.029 400.492 808.89 409.958 807.65Z" id="path39"/>
  <path fill="#F79B37" transform="scale(0.542759 0.542759)" d="M855.128 758.73C855.334 759.094 855.644 759.416 855.746 759.822C856.558 763.041 855.604 774.666 855.572 778.989C855.442 796.343 855.363 813.739 855.554 831.092C851.295 835.555 847.773 841.165 844.104 846.139C836.3 856.717 828.443 867.659 820.039 877.754C819.149 838.319 819.892 798.724 819.837 759.269C831.551 758.984 843.459 759.597 855.128 758.73Z" id="path40"/>
  <path fill="#F8D3A3" transform="scale(0.542759 0.542759)" d="M170.609 757.077C181.755 757.512 193.224 757.422 204.37 757.045L204.939 757.393Q204.796 818.773 204.029 880.148C201.722 876.048 198.378 872.14 195.465 868.442L178.234 846.579C174.992 842.45 171.287 838.243 168.623 833.727Q168.688 795.704 169.59 757.691L170.609 757.077Z" id="path41"/>
  <path fill="#F16A3E" transform="scale(0.542759 0.542759)" d="M303.526 319.554L302.963 402.29C295.636 396.761 288.994 389.194 282.279 382.856C260.36 362.166 239.604 340.353 217.537 319.829C224.205 319.04 235.807 319.813 243.121 319.782L303.526 319.554Z" id="path42"/>
  <path fill="#F16A3E" transform="scale(0.542759 0.542759)" d="M808.463 319.238C807.244 323.231 728.694 393.738 720.15 400.024C719.464 379.721 720.08 359.196 720.014 338.871L719.992 319.544C749.457 319.582 779.016 318.83 808.463 319.238Z" id="path43"/>
  <path fill="#F8D3A3" transform="scale(0.542759 0.542759)" d="M755.595 760.047C761.79 758.612 785.453 759.522 793.493 759.519L793.103 845.472C793.05 858.024 794.216 871.272 793.16 883.724C781.408 866.059 767.046 849.721 756.454 831.334Q755.363 795.871 755.556 760.391L755.595 760.047Z" id="path44"/>
  <path fill="#F8D3A3" transform="scale(0.542759 0.542759)" d="M303.545 232.482C303.602 261.492 303.115 290.552 303.526 319.554L243.121 319.782C235.807 319.813 224.205 319.04 217.537 319.829C223.424 313.345 229.831 307.257 236.003 301.042L277.009 260.23C286.055 251.229 295.569 242.46 303.545 232.482Z" id="path45"/>
  <path fill="#1E4E74" transform="scale(0.542759 0.542759)" d="M217.2 416.364C239.158 418.885 254.329 427.138 268.112 444.481C269.904 446.735 271.75 449.771 273.969 451.545C273.516 452.711 273.411 452.853 273.923 454.066C274.812 456.173 276.541 458.234 277.887 460.092C278.341 473.34 279.915 489.611 277.652 502.469C273.436 513.986 267.026 523.039 258.564 531.854L258.361 536.825L257.995 536.941C257.956 535.743 258.159 533.548 257.578 532.568C244.753 542.102 233.168 548.165 217.007 549.523C217.289 541.795 216.99 533.969 216.823 526.239C225.428 525.266 233.097 522.059 240.044 516.867C249.325 509.929 255.364 498.927 256.917 487.498C258.511 475.768 255.199 464.503 248.015 455.161Q247.32 454.248 246.58 453.37Q245.841 452.492 245.058 451.653Q244.276 450.813 243.453 450.013Q242.63 449.213 241.768 448.455Q240.906 447.697 240.008 446.983Q239.109 446.269 238.177 445.6Q237.244 444.931 236.279 444.31Q235.314 443.688 234.319 443.116Q233.325 442.543 232.303 442.02Q231.281 441.498 230.235 441.026Q229.188 440.555 228.119 440.137Q227.051 439.718 225.963 439.353Q224.874 438.988 223.769 438.678Q222.664 438.367 221.545 438.112Q220.426 437.857 219.296 437.658Q218.166 437.459 217.027 437.316L217.2 416.364Z" id="path46"/>
  <path fill="#F79B37" transform="scale(0.542759 0.542759)" d="M720.254 233.369C729.794 241.789 738.731 251.138 747.867 260.018L790.003 300.802C796.172 306.859 802.082 313.431 808.463 319.238C779.016 318.83 749.457 319.582 719.992 319.544C720.007 291.186 720.746 262.621 719.85 234.293L720.254 233.369Z" id="path47"/>
  <path fill="#0E6A83" transform="scale(0.542759 0.542759)" d="M204.37 757.045C212.796 756.786 221.254 757.008 229.683 757.091L229.965 857.773L230.014 885.739C230.025 890.666 229.579 896.259 230.441 901.095C228.971 903.934 218.189 920.23 216.105 921.34C211.984 917.46 209.247 908.988 203.992 903.685C204.258 895.868 204.031 887.973 204.029 880.148Q204.796 818.773 204.939 757.393L204.37 757.045Z" id="path48"/>
  <path fill="#79C5C8" transform="scale(0.542759 0.542759)" d="M204.939 757.393L215.51 757.503L215.766 876.087Q215.783 890.522 216.133 904.953C216.235 910.255 216.765 916.095 216.105 921.34C211.984 917.46 209.247 908.988 203.992 903.685C204.258 895.868 204.031 887.973 204.029 880.148Q204.796 818.773 204.939 757.393Z" id="path49"/>
  <path fill="#DE4D49" transform="scale(0.542759 0.542759)" d="M533.961 807.943L556.918 808.055C564.783 808.33 572.861 807.689 580.666 808.39L586.77 808.42C587.133 826.303 586.903 844.222 586.957 862.111C586.536 867.548 587.997 880.371 586.549 884.441C569.062 884.475 551.486 883.865 534.012 884.431C533.532 858.969 533.973 833.414 533.961 807.943Z" id="path50"/>
  <path fill="#F9C341" transform="scale(0.542759 0.542759)" d="M580.666 808.39L586.77 808.42C587.133 826.303 586.903 844.222 586.957 862.111C580.097 860.742 573.977 858.395 568.92 853.387C557.279 841.859 559.509 823.54 559.528 808.55C566.568 808.568 573.633 808.699 580.666 808.39Z" id="path51"/>
  <path fill="#79C5C8" transform="scale(0.542759 0.542759)" d="M807.356 759.426L819.837 759.269C819.892 798.724 819.149 838.319 820.039 877.754C820.046 886.909 819.637 896.262 820.134 905.391C818.62 910.273 810.687 920.195 807.689 925.471L807.163 925.618L807.053 924.614C804.726 916.644 794.357 906.886 793.461 900.507Q793.146 892.118 793.16 883.724C794.216 871.272 793.05 858.024 793.103 845.472L793.493 759.519C798.021 759.526 802.586 759.407 807.11 759.55L807.356 759.426Z" id="path52"/>
  <path fill="#077A8E" transform="scale(0.542759 0.542759)" d="M807.356 759.426L819.837 759.269C819.892 798.724 819.149 838.319 820.039 877.754C820.046 886.909 819.637 896.262 820.134 905.391C818.62 910.273 810.687 920.195 807.689 925.471L807.163 925.618L807.053 924.614C807.115 881.419 808.139 838.214 807.547 795.02C807.415 785.368 808.672 768.254 807.11 759.55L807.356 759.426Z" id="path53"/>
  <path fill="#0A1D45" transform="scale(0.542759 0.542759)" d="M380.748 884.606C400.379 885.051 420.028 884.424 439.662 884.707C456.77 885.578 474.256 884.781 491.403 884.667Q491.681 887.561 492.055 890.445C485.579 903.716 479.915 917.33 473.92 930.816C470.473 938.567 466.349 946.128 463.409 954.082C462.583 952.428 461.479 950.66 460.9 948.917C452.78 932.114 447.775 914.309 438.63 897.876C432.349 914.577 425.375 931.055 418.831 947.658C418.172 950.303 416.698 953.078 415.624 955.604C405.936 934.509 395.211 913.949 385.328 892.968L380.748 884.606Z" id="path54"/>
  <path fill="#1E4E74" transform="scale(0.542759 0.542759)" d="M453.098 890.53C466.067 890.198 479.08 890.455 492.055 890.445C485.579 903.716 479.915 917.33 473.92 930.816C470.473 938.567 466.349 946.128 463.409 954.082C462.583 952.428 461.479 950.66 460.9 948.917L461.638 948.184C463.251 940.256 454.71 901.626 453.098 890.53Z" id="path55"/>
  <path fill="#1E4E74" transform="scale(0.542759 0.542759)" d="M385.328 892.968C387.219 890.899 388.513 890.947 391.208 890.824C402.259 890.319 413.498 890.798 424.566 890.864Q423.614 902.854 422.291 914.808C421.575 921.145 417.929 943.199 418.831 947.658C418.172 950.303 416.698 953.078 415.624 955.604C405.936 934.509 395.211 913.949 385.328 892.968Z" id="path56"/>
  <path fill="#0A1D45" transform="scale(0.542759 0.542759)" d="M534.012 884.431C551.486 883.865 569.062 884.475 586.549 884.441L645.52 884.364C645.511 886.68 645.445 888.233 643.957 890.124Q627.491 921.895 612.44 954.36C610.774 951.221 608.806 947.9 607.721 944.501C600.948 929.666 594.653 914.587 588.066 899.665C581.029 915.087 575.494 931.419 567.687 946.441C566.779 949.392 564.982 952.044 564.108 955.112L534.032 890.064C533.61 889.281 532.937 888.278 532.723 887.426C532.374 886.035 533.233 885.432 534.012 884.431Z" id="path57"/>
  <path fill="#1E4E74" transform="scale(0.542759 0.542759)" d="M534.032 890.064L572.898 889.96C571.384 901.442 570.356 912.99 569.083 924.501C568.377 930.879 566.932 937.992 567.067 944.379C567.084 945.183 567.298 945.751 567.687 946.441C566.779 949.392 564.982 952.044 564.108 955.112L534.032 890.064Z" id="path58"/>
  <path fill="#1E4E74" transform="scale(0.542759 0.542759)" d="M603.664 890.502C616.628 890.48 631.195 891.432 643.957 890.124Q627.491 921.895 612.44 954.36C610.774 951.221 608.806 947.9 607.721 944.501C608.065 943.918 608.332 943.466 608.336 942.756C608.355 939.468 607.418 935.566 607.11 932.208C605.848 918.422 603.67 904.342 603.664 890.502Z" id="path59"/>
  <path fill="#B53142" transform="scale(0.542759 0.542759)" d="M616.068 808.148C625.836 808.435 635.758 808.467 645.525 808.161C645.488 833.549 645.152 858.98 645.52 884.364L586.549 884.441C587.997 880.371 586.536 867.548 586.957 862.111C586.903 844.222 587.133 826.303 586.77 808.42L597.294 808.399C603.475 807.869 609.865 808.112 616.068 808.148Z" id="path60"/>
  <path fill="#F16A3E" transform="scale(0.542759 0.542759)" d="M586.77 808.42L597.294 808.399C603.552 808.736 609.838 808.569 616.102 808.524C616.134 823.404 618.903 841.854 607.528 853.513C602.187 858.987 594.554 861.927 586.957 862.111C586.903 844.222 587.133 826.303 586.77 808.42Z" id="path61"/>
  <path fill="#FC852D" transform="scale(0.542759 0.542759)" d="M229.683 757.091C238.208 757.418 262.777 756.226 268.937 757.813C267.735 766.298 268.577 775.831 268.59 784.424C268.624 806.76 269.528 829.544 268.322 851.834C260.977 861.895 253.262 871.638 245.758 881.573C240.865 888.051 236.28 895.449 230.441 901.095C229.579 896.259 230.025 890.666 230.014 885.739L229.965 857.773L229.683 757.091Z" id="path62"/>
  <path fill="#0E6A83" transform="scale(0.542759 0.542759)" d="M160.483 525.346C150.733 513.55 145.279 497.544 145.534 482.264Q145.555 480.617 145.658 478.973Q145.761 477.329 145.945 475.693Q146.13 474.056 146.395 472.43Q146.66 470.805 147.006 469.194Q147.351 467.584 147.776 465.993Q148.201 464.401 148.705 462.833Q149.208 461.265 149.789 459.724Q150.369 458.182 151.026 456.672Q151.682 455.161 152.412 453.685Q153.143 452.208 153.945 450.77Q154.748 449.332 155.621 447.935Q156.494 446.539 157.435 445.187Q158.377 443.836 159.384 442.532Q160.391 441.229 161.462 439.977Q162.532 438.726 163.663 437.529Q164.795 436.331 165.984 435.192C180.228 421.559 197.763 415.996 217.2 416.364L217.027 437.316C204.211 436.331 193.166 438.971 183.237 447.489C173.884 455.512 167.357 467.269 166.543 479.657C166.027 487.517 167.856 495.374 171.18 502.473Q171.665 503.431 172.197 504.365Q172.73 505.298 173.307 506.203Q173.885 507.109 174.507 507.985Q175.129 508.861 175.794 509.705Q176.459 510.548 177.164 511.358Q177.87 512.168 178.615 512.942Q179.36 513.716 180.142 514.452Q180.925 515.188 181.743 515.885Q182.561 516.581 183.412 517.236Q184.264 517.891 185.146 518.503Q186.029 519.115 186.942 519.682Q187.854 520.25 188.793 520.771Q189.732 521.293 190.696 521.767Q191.66 522.241 192.646 522.667Q193.632 523.093 194.638 523.469Q195.644 523.846 196.668 524.172C203.058 526.212 210.154 526.908 216.823 526.239C216.99 533.969 217.289 541.795 217.007 549.523C233.168 548.165 244.753 542.102 257.578 532.568C258.159 533.548 257.956 535.743 257.995 536.941L257.978 546.082C254.863 546.985 251.965 549.544 249.319 551.414C239.336 558.466 229.427 562.053 217.034 562.011C199.958 561.687 187.302 559.017 173.498 548.556L173.618 545.269C173.557 542.762 173.638 540.23 173.655 537.722C168.64 534.201 164.486 529.956 160.483 525.346Z" id="path63"/>
  <path fill="#06113D" transform="scale(0.542759 0.542759)" d="M217.007 549.523C233.168 548.165 244.753 542.102 257.578 532.568C258.159 533.548 257.956 535.743 257.995 536.941L257.978 546.082C254.863 546.985 251.965 549.544 249.319 551.414C239.336 558.466 229.427 562.053 217.034 562.011C199.958 561.687 187.302 559.017 173.498 548.556L173.618 545.269C173.981 542.697 174.062 540.218 174.078 537.629C188.522 546.336 200.002 549.641 217.007 549.523Z" id="path64"/>
  <path fill="#B53142" transform="scale(0.542759 0.542759)" d="M435.907 807.563C445.641 807.539 459.224 806.576 468.382 807.81C475.967 808.565 483.91 808.137 491.536 808.095C491.431 833.565 492.173 859.226 491.403 884.667C474.256 884.781 456.77 885.578 439.662 884.707C440.896 881.088 439.862 866.837 439.784 862.25C432.586 861.938 425.169 858.23 420.03 853.196C418.859 852.049 416.91 850.196 416.914 848.443C408.647 834.402 409.682 823.422 409.958 807.65C418.609 807.287 427.268 807.838 435.907 807.563Z" id="path65"/>
  <path fill="#F79B37" transform="scale(0.542759 0.542759)" d="M443.825 807.937C451.921 807.939 460.045 807.796 468.138 807.969C467.866 823.953 471.17 840.905 458.481 853.382C454.67 857.129 449.529 859.878 444.267 860.899C443.947 843.247 444.366 825.587 443.825 807.937Z" id="path66"/>
  <path fill="#F8C35C" transform="scale(0.542759 0.542759)" d="M409.958 807.65C418.609 807.287 427.268 807.838 435.907 807.563L438.509 807.84L443.825 807.937C444.366 825.587 443.947 843.247 444.267 860.899C442.353 861.045 440.528 860.99 438.613 860.858C430.349 859.345 424.535 856.26 418.645 850.193L416.914 848.443C408.647 834.402 409.682 823.422 409.958 807.65Z" id="path67"/>
  <path fill="#F9C341" transform="scale(0.542759 0.542759)" d="M438.509 807.84L443.825 807.937C444.366 825.587 443.947 843.247 444.267 860.899C442.353 861.045 440.528 860.99 438.613 860.858C440.022 856.378 438.723 814.472 438.509 807.84Z" id="path68"/>
  <path fill="#79C5C8" transform="scale(0.542759 0.542759)" d="M171.18 502.473C167.856 495.374 166.027 487.517 166.543 479.657C167.357 467.269 173.884 455.512 183.237 447.489C193.166 438.971 204.211 436.331 217.027 437.316Q218.166 437.459 219.296 437.658Q220.426 437.857 221.545 438.112Q222.664 438.367 223.769 438.678Q224.874 438.988 225.963 439.353Q227.051 439.718 228.119 440.137Q229.188 440.555 230.235 441.026Q231.281 441.498 232.303 442.02Q233.325 442.543 234.319 443.116Q235.314 443.688 236.279 444.31Q237.244 444.931 238.177 445.6Q239.109 446.269 240.008 446.983Q240.906 447.697 241.768 448.455Q242.63 449.213 243.453 450.013Q244.276 450.813 245.058 451.653Q245.841 452.492 246.58 453.37Q247.32 454.248 248.015 455.161C255.199 464.503 258.511 475.768 256.917 487.498C255.364 498.927 249.325 509.929 240.044 516.867C233.097 522.059 225.428 525.266 216.823 526.239C210.154 526.908 203.058 526.212 196.668 524.172Q195.644 523.846 194.638 523.469Q193.632 523.093 192.646 522.667Q191.66 522.241 190.696 521.767Q189.732 521.293 188.793 520.771Q187.854 520.25 186.942 519.682Q186.029 519.115 185.146 518.503Q184.264 517.891 183.412 517.236Q182.561 516.581 181.743 515.885Q180.925 515.188 180.142 514.452Q179.36 513.716 178.615 512.942Q177.87 512.168 177.164 511.358Q176.459 510.548 175.794 509.705Q175.129 508.861 174.507 507.985Q173.885 507.109 173.307 506.203Q172.73 505.298 172.197 504.365Q171.665 503.431 171.18 502.473Z" id="path69"/>
  <path fill="#FAFBFB" transform="scale(0.542759 0.542759)" d="M208.991 459.638C214.08 459.232 219 460.075 223.379 462.809Q223.844 463.1 224.295 463.414Q224.745 463.728 225.179 464.064Q225.613 464.4 226.03 464.757Q226.447 465.114 226.845 465.492Q227.244 465.87 227.623 466.267Q228.002 466.664 228.36 467.079Q228.719 467.495 229.056 467.928Q229.394 468.361 229.709 468.81Q230.024 469.26 230.317 469.724Q230.609 470.189 230.878 470.667Q231.147 471.146 231.392 471.637Q231.636 472.129 231.856 472.632Q232.076 473.135 232.27 473.648Q232.464 474.162 232.632 474.684Q232.801 475.207 232.943 475.737Q233.085 476.267 233.2 476.804Q233.315 477.38 233.401 477.961Q233.488 478.542 233.544 479.127Q233.6 479.712 233.627 480.299Q233.654 480.885 233.65 481.473Q233.647 482.06 233.614 482.647Q233.581 483.233 233.518 483.817Q233.455 484.401 233.363 484.982Q233.27 485.562 233.148 486.136Q233.026 486.711 232.876 487.279Q232.725 487.847 232.545 488.406Q232.366 488.965 232.158 489.515Q231.95 490.064 231.715 490.602Q231.48 491.141 231.217 491.666Q230.955 492.192 230.666 492.703Q230.377 493.215 230.063 493.711Q229.748 494.207 229.409 494.687C225.672 499.955 220.312 502.748 214.056 503.821C209.048 504.224 203.808 503.003 199.585 500.268Q199.132 499.972 198.695 499.654Q198.258 499.336 197.837 498.997Q197.416 498.658 197.012 498.298Q196.609 497.938 196.224 497.558Q195.838 497.179 195.473 496.78Q195.107 496.382 194.762 495.966Q194.416 495.55 194.092 495.117Q193.768 494.685 193.465 494.236Q193.163 493.788 192.884 493.325Q192.604 492.862 192.348 492.386Q192.092 491.91 191.859 491.422Q191.627 490.933 191.42 490.434Q191.212 489.935 191.03 489.426Q190.848 488.917 190.691 488.399Q190.534 487.882 190.403 487.357Q190.272 486.833 190.168 486.302C188.965 480.455 189.834 474.343 193.203 469.35C197.047 463.654 202.496 461.042 208.991 459.638Z" id="path70"/>
  <defs id="defs71">
    <linearGradient id="gradient_1" gradientUnits="userSpaceOnUse" x1="623.24927" y1="32.384163" x2="458.17163" y2="301.97421">
      <stop offset="0" stop-color="#00244D" id="stop70"/>
      <stop offset="1" stop-color="#0E5879" id="stop71"/>
    </linearGradient>
  </defs>
  <path fill="url(#gradient_1)" transform="scale(0.542759 0.542759)" d="M620.344 134.131Q632.637 110.526 644.59 86.7461C650.134 75.539 655.285 63.3374 662.006 52.8091C663.758 70.856 663.308 89.6683 663.583 107.813C663.865 126.477 664.763 145.164 665.275 163.828C683.719 177.632 699.144 196.283 712.358 215.049C714.966 215.96 715.938 217.108 717.347 219.424C717.415 222.498 717.181 226.068 717.824 229.05C711.79 230.166 704.191 229.199 697.969 229.175L652.755 229.054L477.19 229.092C471.054 228.507 464.524 228.914 458.349 228.92L421.674 228.958L302.862 229.009C302.531 224.52 302.596 219.996 302.566 215.496C309.739 215.341 317.007 215.663 324.157 215.092C320.206 214.849 316.165 215 312.203 214.98C317.712 208.175 322.737 201.005 328.373 194.297C336.133 185.06 344.519 176.767 353.097 168.315C355.305 166.14 358.673 163.336 360.144 160.654C363.363 158.494 365.781 154.142 369.461 152.911C370.592 153.167 370.689 153.111 371.732 152.571C374.507 151.133 377.272 148.762 379.871 146.979C384.968 143.484 390.146 140.308 395.663 137.506L404.697 133.31C411.707 129.301 419.585 126.257 427.01 123.113C473.784 103.304 521.006 100.509 569.902 113.81C586.086 118.213 606.071 125.397 620.344 134.131Z" id="path71"/>
  <path fill="#DE4D49" transform="scale(0.542759 0.542759)" d="M654.274 89.314C655.613 93.5294 655.063 143.879 655.097 153.537C650.112 150.567 645.295 147.188 640.441 144.002C636.698 141.725 632.682 139.775 628.802 137.737C638.025 122.136 644.334 104.402 654.274 89.314Z" id="path72"/>
  <path fill="#79C5C8" transform="scale(0.542759 0.542759)" d="M511.867 114.418C513.493 114.473 514.276 114.222 515.551 115.284C517.013 119.639 516.046 124.679 516.089 129.248C508.266 128.314 500.204 129.201 492.379 129.809C452.47 132.91 411.826 146.997 380.155 171.891C365.346 183.531 351.219 198.461 341.898 214.972L325.027 215.007C330.906 205.94 337.833 197.799 345.118 189.845C381.339 150.303 432.504 124.231 485.442 116.52C494.222 115.241 503.01 114.811 511.867 114.418Z" id="path73"/>
  <path fill="#077A8E" transform="scale(0.542759 0.542759)" d="M511.867 114.418C517.565 113.29 524.138 114.127 529.92 114.674C563.916 117.887 605.148 132.922 633.411 151.819C659.531 169.283 684.027 188.155 701.133 215.028L679.788 215.002L665.064 215C660.797 209.761 655.319 204.825 650.382 200.198C619.544 171.301 589.682 152.283 548.065 143.493C538.026 141.372 526.686 139.3 516.422 139.628L516.128 139.606L516.089 129.248C516.046 124.679 517.013 119.639 515.551 115.284C514.276 114.222 513.493 114.473 511.867 114.418Z" id="path74"/>
  <path fill="#1FA8B4" transform="scale(0.542759 0.542759)" d="M516.089 129.248C516.387 129.331 516.684 129.417 516.983 129.497C522.428 130.946 529.066 130.967 534.734 131.664Q547.265 133.291 559.544 136.271C599.226 145.838 637.734 167.228 665.745 197.114C670.171 201.836 675.21 206.69 678.586 212.229C679.133 213.127 679.592 213.96 679.788 215.002L665.064 215C660.797 209.761 655.319 204.825 650.382 200.198C619.544 171.301 589.682 152.283 548.065 143.493C538.026 141.372 526.686 139.3 516.422 139.628L516.128 139.606L516.089 129.248Z" id="path75"/>
  <path fill="#077A8E" transform="scale(0.542759 0.542759)" d="M516.422 139.628C526.686 139.3 538.026 141.372 548.065 143.493C589.682 152.283 619.544 171.301 650.382 200.198C655.319 204.825 660.797 209.761 665.064 215L516.473 214.926L516.422 139.628Z" id="path76"/>
  <path fill="#FAFBFB" transform="scale(0.542759 0.542759)" d="M341.898 214.972C351.219 198.461 365.346 183.531 380.155 171.891C411.826 146.997 452.47 132.91 492.379 129.809C500.204 129.201 508.266 128.314 516.089 129.248L516.128 139.606C504.259 139.466 492.387 139.532 480.606 141.142C442.357 146.369 400.286 164.405 372.52 191.573C365.578 198.365 358.163 206.463 353.453 215.024L459.266 214.886C478.269 214.883 497.492 214.296 516.473 214.926L665.064 215L679.788 215.002L701.133 215.028L712.358 215.049C714.966 215.96 715.938 217.108 717.347 219.424C717.415 222.498 717.181 226.068 717.824 229.05C711.79 230.166 704.191 229.199 697.969 229.175L652.755 229.054L477.19 229.092C471.054 228.507 464.524 228.914 458.349 228.92L421.674 228.958L302.862 229.009C302.531 224.52 302.596 219.996 302.566 215.496C309.739 215.341 317.007 215.663 324.157 215.092L325.027 215.007L341.898 214.972Z" id="path77"/>
  <path fill="#79C5C8" transform="scale(0.542759 0.542759)" d="M353.453 215.024C358.163 206.463 365.578 198.365 372.52 191.573C400.286 164.405 442.357 146.369 480.606 141.142C492.387 139.532 504.259 139.466 516.128 139.606L516.422 139.628L516.473 214.926C497.492 214.296 478.269 214.883 459.266 214.886L353.453 215.024Z" id="path78"/>
  <defs id="defs79">
    <linearGradient id="gradient_2" gradientUnits="userSpaceOnUse" x1="872.90759" y1="573.53168" x2="526.23199" y2="560.30157">
      <stop offset="0" stop-color="#025574" id="stop78"/>
      <stop offset="1" stop-color="#188FA1" id="stop79"/>
    </linearGradient>
  </defs>
  <path fill="url(#gradient_2)" transform="scale(0.542759 0.542759)" d="M748.329 474.614Q748.52 473.067 748.787 471.532Q749.055 469.996 749.398 468.476Q749.741 466.955 750.16 465.454Q750.579 463.953 751.071 462.474Q751.564 460.995 752.129 459.543Q752.695 458.09 753.332 456.668Q753.969 455.245 754.676 453.856Q755.383 452.467 756.158 451.115Q756.933 449.763 757.774 448.45Q758.615 447.138 759.521 445.87Q760.426 444.601 761.394 443.379Q762.361 442.157 763.388 440.984Q764.415 439.812 765.499 438.692Q766.583 437.572 767.721 436.507Q768.859 435.442 770.049 434.435Q771.239 433.429 772.477 432.482C786.896 421.487 803.917 417.383 821.826 419.98C838.634 422.418 854.05 432.284 864.119 445.866C874.127 459.366 879.471 477.767 876.786 494.5C874.025 511.712 863.817 527.656 849.947 538.071L849.876 546.178L849.554 546.094C848.96 549.245 846.238 550.96 843.601 552.724C834.163 559.036 823.593 562.018 812.415 563.279L811.738 563.66C802.365 563.198 793.695 561.898 785.218 557.671C779.674 554.906 768.109 547.197 766.102 541.268L765.995 532.293C756.79 522.05 750.011 511.614 747.328 497.915C746.45 504.716 746.968 511.927 747.017 518.792Q747.148 535.381 747.076 551.971L747.458 688.846C740.212 696.599 733.314 704.571 726.39 712.606C724.574 711.957 681.697 712.93 675.06 712.941L516.924 712.51C529.505 702.406 540.214 690.592 551.176 678.816L586.454 640.504Q625.571 598.033 662.851 553.942C668.546 547.335 674.513 540.965 680.179 534.332Q702.583 507.599 724.392 480.378C726.902 476.437 730.396 472.746 733.339 469.093C737.08 462.961 745.792 458.301 746.655 450.771C747.509 458.715 747.736 466.657 748.329 474.614Z" id="path79"/>
  <defs id="defs81">
    <linearGradient id="gradient_3" gradientUnits="userSpaceOnUse" x1="691.18054" y1="604.7536" x2="702.17828" y2="640.2901">
      <stop offset="0" stop-color="#022655" id="stop80"/>
      <stop offset="1" stop-color="#053E62" id="stop81"/>
    </linearGradient>
  </defs>
  <path fill="url(#gradient_3)" transform="scale(0.542759 0.542759)" d="M693.328 603.589C696.921 603.332 700.004 603.583 703.322 605.138Q703.77 605.35 704.207 605.585Q704.645 605.819 705.07 606.075Q705.494 606.331 705.906 606.607Q706.318 606.884 706.715 607.181Q707.113 607.477 707.495 607.794Q707.877 608.11 708.243 608.445Q708.609 608.779 708.958 609.132Q709.306 609.485 709.637 609.854Q709.968 610.224 710.28 610.609Q710.592 610.995 710.884 611.396Q711.177 611.796 711.449 612.211Q711.721 612.625 711.972 613.053Q712.223 613.481 712.453 613.921Q712.682 614.36 712.89 614.811Q713.097 615.261 713.282 615.722Q713.466 616.182 713.628 616.651C715.342 621.687 714.897 627.545 712.529 632.298C710.039 637.297 706.064 640.195 700.83 641.829C696.849 642.108 692.772 641.839 689.146 640.033C684.756 637.846 681.664 633.901 680.255 629.238C678.598 623.754 679.471 617.124 682.253 612.146C684.808 607.575 688.393 605.055 693.328 603.589Z" id="path81"/>
  <path fill="#F79B37" transform="scale(0.542759 0.542759)" d="M704.496 616.478C705.505 619.258 706.127 621.807 704.82 624.613Q704.611 625.069 704.354 625.501Q704.096 625.932 703.795 626.334Q703.493 626.735 703.151 627.102Q702.808 627.469 702.428 627.797Q702.048 628.126 701.635 628.411Q701.222 628.697 700.781 628.937Q700.34 629.178 699.876 629.369Q699.412 629.561 698.93 629.702C696.673 630.375 694.103 630.173 692.008 629.075C690.721 628.4 689.698 627.461 688.799 626.33C691.478 623.942 697.376 623.946 700.928 623.032C701.027 621.375 701.164 619.762 701.412 618.121C702.496 616.649 702.771 616.828 704.496 616.478Z" id="path82"/>
  <path fill="#F8C35C" transform="scale(0.542759 0.542759)" d="M686.863 620.591C687.757 616.833 688.928 613.902 692.445 611.842C694.368 610.715 696.529 610.296 698.686 610.979C701.51 611.873 703.112 613.998 704.496 616.478C702.771 616.828 702.496 616.649 701.412 618.121C701.164 619.762 701.027 621.375 700.928 623.032C697.376 623.946 691.478 623.942 688.799 626.33C687.835 624.5 687.388 622.578 686.863 620.591Z" id="path83"/>
  <path fill="#06113D" transform="scale(0.542759 0.542759)" d="M765.995 532.293C779.931 542.821 794.245 548.407 811.659 549.463C826.308 548.189 836.268 544.414 849.534 538.343L849.554 546.094C848.96 549.245 846.238 550.96 843.601 552.724C834.163 559.036 823.593 562.018 812.415 563.279L811.738 563.66C802.365 563.198 793.695 561.898 785.218 557.671C779.674 554.906 768.109 547.197 766.102 541.268L765.995 532.293Z" id="path84"/>
  <path fill="#1FA8B4" transform="scale(0.542759 0.542759)" d="M733.339 469.093C733.997 479.124 733.538 489.447 733.492 499.504L733.249 557.027Q733.578 598.804 733.423 640.581C733.371 655.056 733.601 669.643 732.852 684.101C732.3 682.34 731.786 680.417 730.936 678.775C728.579 674.225 724.374 671.19 723.569 665.879L723.565 665.665C724.802 661.052 724.039 654.565 724.108 649.76Q724.46 632.867 724.474 615.97C724.636 570.817 725.241 525.521 724.392 480.378C726.902 476.437 730.396 472.746 733.339 469.093Z" id="path85"/>
  <path fill="#1E4E74" transform="scale(0.542759 0.542759)" d="M723.569 665.879C723.53 668.316 723.459 670.782 723.225 673.208C722.438 681.409 719.383 689.021 712.724 694.231C707.316 698.463 700.186 700.105 693.43 699.037C687.258 698.062 681.208 693.339 677.759 688.317C673.929 682.739 672.909 676.351 674.065 669.747C675.326 662.551 679.471 655.777 685.604 651.734C690.936 648.218 697.515 647.3 703.702 648.708C713.485 650.935 718.494 657.703 723.565 665.665L723.569 665.879Z" id="path86"/>
  <path fill="#79C5C8" transform="scale(0.542759 0.542759)" d="M806.348 438.155C816.199 437.301 825.087 438.929 833.547 444.203C843.253 450.253 850.252 459.603 852.817 470.798C855.411 482.119 853.799 495.006 847.444 504.846C840.258 515.971 828.495 522.244 815.829 524.92C804.361 525.892 793.773 523.276 784.366 516.524C774.932 509.753 768.919 499.768 767.095 488.299C765.308 477.058 768.73 465.307 775.401 456.207C782.925 445.943 793.897 440.063 806.348 438.155Z" id="path87"/>
  <path fill="#FAFBFB" transform="scale(0.542759 0.542759)" d="M809.97 458.676C814.718 458.853 819.269 460 823.232 462.714Q823.679 463.015 824.109 463.34Q824.539 463.664 824.952 464.011Q825.364 464.357 825.758 464.725Q826.152 465.092 826.526 465.48Q826.9 465.868 827.253 466.275Q827.607 466.682 827.938 467.107Q828.269 467.532 828.578 467.974Q828.886 468.415 829.171 468.873Q829.456 469.33 829.717 469.802Q829.977 470.273 830.213 470.758Q830.448 471.242 830.658 471.739Q830.867 472.235 831.051 472.742Q831.234 473.249 831.39 473.764Q831.547 474.28 831.676 474.803Q831.805 475.326 831.907 475.855Q832.008 476.384 832.082 476.918C832.921 482.682 831.783 488.398 828.112 492.998C824.092 498.034 818.129 500.869 811.844 501.686C806.407 501.685 801.561 500.422 797.154 497.088Q796.725 496.764 796.314 496.42Q795.903 496.075 795.509 495.709Q795.116 495.344 794.741 494.959Q794.367 494.574 794.013 494.171Q793.658 493.768 793.325 493.347Q792.992 492.926 792.68 492.489Q792.368 492.052 792.079 491.6Q791.79 491.147 791.525 490.681Q791.259 490.214 791.017 489.735Q790.776 489.255 790.559 488.764Q790.342 488.273 790.15 487.772Q789.958 487.27 789.792 486.76Q789.626 486.249 789.486 485.731Q789.346 485.213 789.232 484.688Q789.119 484.163 789.032 483.633Q788.946 483.104 788.886 482.57C788.233 476.929 789.803 470.881 793.407 466.448C797.754 461.104 803.388 459.361 809.97 458.676Z" id="path88"/>
  <path fill="#06113D" transform="scale(0.542759 0.542759)" d="M477.19 229.092L652.755 229.054L697.969 229.175C704.191 229.199 711.79 230.166 717.824 229.05C719.084 229.558 719.164 229.601 719.662 230.955C719.939 231.711 720.08 232.58 720.254 233.369L719.85 234.293C720.746 262.621 720.007 291.186 719.992 319.544L720.014 338.871C720.08 359.196 719.464 379.721 720.15 400.024C720.075 408.855 719.006 425.839 720.275 433.691C720.717 434.026 721.047 434.329 721.58 434.502C729.887 434.103 738.206 434.405 746.509 434.073C746.521 439.602 746.307 445.26 746.655 450.771C745.792 458.301 737.08 462.961 733.339 469.093C730.396 472.746 726.902 476.437 724.392 480.378Q702.583 507.599 680.179 534.332C674.513 540.965 668.546 547.335 662.851 553.942Q625.571 598.033 586.454 640.504L551.176 678.816C540.214 690.592 529.505 702.406 516.924 712.51L675.06 712.941C681.697 712.93 724.574 711.957 726.39 712.606C716.547 723.861 706.28 734.666 696.142 745.647C689.233 753.131 682.535 760.812 675.513 768.19Q668.352 775.83 661.38 783.642C657.744 787.319 656.616 786.56 651.633 786.592L616.149 786.49L616.068 808.148C609.865 808.112 603.475 807.869 597.294 808.399L586.77 808.42L580.666 808.39C572.861 807.689 564.783 808.33 556.918 808.055L556.862 786.511L468.06 786.713C468.906 793.557 468.415 800.903 468.382 807.81C459.224 806.576 445.641 807.539 435.907 807.563C427.268 807.838 418.609 807.287 409.958 807.65L409.73 786.71C396.496 786.399 383.173 786.806 369.93 786.842C355.273 771.173 339.138 756.991 323.957 741.835C322.817 738.071 313.279 730.725 309.947 727.78C310.98 726.189 312.443 723.896 312.512 721.958C312.636 718.464 306.629 713.547 304.406 711.145C302.018 710.908 287.885 696.345 285.096 693.701L284.891 546.291C284.865 520.284 283.905 493.979 284.906 468.012C283.199 465.11 280.221 462.49 277.887 460.092C276.541 458.234 274.812 456.173 273.923 454.066C273.411 452.853 273.516 452.711 273.969 451.545L274.53 451.326L274.358 434.774C283.825 435.05 293.384 435.104 302.846 434.654C302.811 423.87 302.648 413.07 302.963 402.29L303.526 319.554C303.115 290.552 303.602 261.492 303.545 232.482C303.535 231.441 303.609 230.751 303.974 229.773C308.247 228.884 313.375 229.417 317.766 229.436Q331.298 229.616 344.83 229.401C354.192 228.87 363.823 229.311 373.22 229.316L437.778 229.398C450.837 229.429 464.157 229.915 477.19 229.092Z" id="path89"/>
  <path fill="#F9C341" transform="scale(0.542759 0.542759)" d="M619.252 753.697C621.067 752.793 621.946 752.758 623.937 753.062C624.333 755.261 624.641 756.45 623.397 758.444C621.681 757.029 620.517 755.519 619.252 753.697Z" id="path90"/>
  <path fill="#077A8E" transform="scale(0.542759 0.542759)" d="M344.893 264.99C349.659 264.987 354.787 264.589 359.506 265.137C352.314 272.679 347.575 283.036 345.573 293.212C345.055 283.795 344.953 274.417 344.893 264.99Z" id="path91"/>
  <path fill="#F8C35C" transform="scale(0.542759 0.542759)" d="M621.181 741.54C625.294 738.123 627.752 737.383 633.148 737.838C636.256 739.075 637.979 740.139 639.958 742.847C637.12 745.391 633.504 743.069 628.982 746.879C627.064 748.495 625.457 751.053 623.937 753.062C621.946 752.758 621.067 752.793 619.252 753.697C617.792 748.755 618.905 745.911 621.181 741.54Z" id="path92"/>
  <path fill="#F79B37" transform="scale(0.542759 0.542759)" d="M639.958 742.847C641.646 745.397 642.349 748.402 641.822 751.446C641.312 754.397 639.21 757.247 636.778 758.928C634.435 760.547 631.282 761.36 628.47 760.727C626.674 760.323 624.942 759.427 623.397 758.444C624.641 756.45 624.333 755.261 623.937 753.062C625.457 751.053 627.064 748.495 628.982 746.879C633.504 743.069 637.12 745.391 639.958 742.847Z" id="path93"/>
  <path fill="#0A1D45" transform="scale(0.542759 0.542759)" d="M344.999 240.549L374.14 240.347C383.252 240.214 392.447 239.797 401.554 240.237C389.149 243.263 379.138 246.786 368.931 254.607C365.744 257.049 362.799 259.43 360.584 262.839C360.104 263.578 359.906 264.192 359.628 265.027L359.506 265.137C354.787 264.589 349.659 264.987 344.893 264.99L344.931 261.73C345.503 254.787 345.127 247.519 344.999 240.549Z" id="path94"/>
  <path fill="#F79B37" transform="scale(0.542759 0.542759)" d="M449.815 361.915C454.462 357.518 458.878 352.942 463.278 348.299C469.938 360.604 477.796 372.123 485.443 383.819C494.49 397.657 503.37 411.426 513.312 424.655C512.183 429.633 512.621 456.044 513.342 461.981L512.799 462.804C511.657 462.421 511.587 461.981 510.949 460.979C508.66 457.384 506.985 453.358 504.716 449.702C500.865 443.495 496.668 437.511 492.832 431.299C478.539 408.154 464.729 384.673 449.815 361.915Z" id="path95"/>
  <path fill="#F16A3E" transform="scale(0.542759 0.542759)" d="M563.936 349.377Q570.408 356.195 576.802 363.087C568.15 375.954 560.442 389.42 552.186 402.54Q533.215 432.555 513.342 461.981C512.621 456.044 512.183 429.633 513.312 424.655C523.846 412.592 534.71 394.436 543.535 380.782C550.308 370.305 557.563 360.109 563.936 349.377Z" id="path96"/>
  <path fill="#F79B37" transform="scale(0.542759 0.542759)" d="M513.319 297.48L563.936 349.377C557.563 360.109 550.308 370.305 543.535 380.782C534.71 394.436 523.846 412.592 513.312 424.655C513.941 417.406 513.513 409.755 513.59 402.457Q513.861 377.603 513.835 352.748L513.83 318.175C513.822 311.349 514.206 304.257 513.319 297.48Z" id="path97"/>
  <path fill="#F8D3A3" transform="scale(0.542759 0.542759)" d="M463.278 348.299Q476.437 334.912 489.362 321.298C495.684 314.51 501.725 307.261 508.445 300.873C509.725 299.656 511.503 297.63 513.319 297.48C514.206 304.257 513.822 311.349 513.83 318.175L513.835 352.748Q513.861 377.603 513.59 402.457C513.513 409.755 513.941 417.406 513.312 424.655C503.37 411.426 494.49 397.657 485.443 383.819C477.796 372.123 469.938 360.604 463.278 348.299Z" id="path98"/>
  <path fill="#0E6A83" transform="scale(0.542759 0.542759)" d="M463 263.519Q513.111 264.211 563.226 263.91C559.19 268.092 555.953 273.38 553.373 278.56C544.619 296.139 545.972 313.837 552.141 331.94L538.974 317.285Q525.629 303.9 512.471 290.331C507.732 295.737 502.054 300.573 496.981 305.702C489.282 313.485 481.899 321.63 474.469 329.671C476.581 324.67 478.248 319.442 478.878 314.035C481.055 295.358 474.55 277.995 463 263.519Z" id="path99"/>
  <path fill="#0A1D45" transform="scale(0.542759 0.542759)" d="M516.483 469.618C517.054 466.61 529.775 448.344 532.327 445.522C540.235 444.141 548.868 444.696 556.897 444.659Q576.459 444.494 596.022 444.592L696.932 444.021C692.787 453.264 684.981 460.939 679.384 469.375C671.834 468.591 663.933 469.05 656.347 469.131L620.253 469.528Q568.369 470.367 516.483 469.618Z" id="path100"/>
  <path fill="#142D54" transform="scale(0.542759 0.542759)" d="M322.163 443.55C379.503 445.078 436.812 443.511 494.127 444.617C500.27 451.219 503.539 461.713 508.065 469.526Q424.941 470.076 341.817 469.499L341.471 469.239C335.26 460.529 328.128 452.417 322.163 443.55Z" id="path101"/>
  <path fill="#D6D7D2" transform="scale(0.542759 0.542759)" d="M706.618 442.472Q722.828 442.297 739.036 442.621C739.28 444.72 739.243 446.849 739.272 448.96C735.103 456.609 728.649 463.091 723.159 469.833L697.928 500.911C684.867 516.689 672.209 532.825 658.808 548.32C623.685 588.931 587.102 628.27 551.332 668.307C548.621 671.279 537.777 685.179 535.381 686.208C538.299 681.466 541.809 677.022 544.988 672.443C557.506 654.406 571.117 637.104 583.484 618.977Q625.855 556.304 669.701 494.652C681.968 477.293 693.806 459.419 706.618 442.472Z" id="path102"/>
  <path fill="#0E6A83" transform="scale(0.542759 0.542759)" d="M314.719 721.768C329.452 720.967 344.62 721.824 359.398 721.834L443.115 721.818L486.449 721.85C494.306 721.845 502.643 721.285 510.425 722.234C510.358 727.817 509.671 734.192 510.468 739.699C510.318 748.048 509.721 756.361 509.755 764.717C507.898 765.075 506.581 765.371 504.747 764.806C504.248 764.267 503.891 764.154 503.908 763.358C503.965 760.646 507.427 755.94 505.641 753.548C505.472 753.321 504.614 752.428 504.392 752.194C504.34 751.986 504.296 751.775 504.237 751.569C503.445 748.804 500.38 745.392 497.825 744.119C494.39 741.446 492.022 739.856 487.482 740.417Q486.861 740.498 486.253 740.643Q485.644 740.789 485.054 740.997Q484.464 741.206 483.9 741.475Q483.335 741.745 482.801 742.072Q482.268 742.399 481.772 742.78Q481.276 743.162 480.823 743.593Q480.369 744.024 479.964 744.501Q479.558 744.977 479.205 745.494C477.253 748.326 476.735 751.213 477.461 754.548L477.624 755.285C473.911 755.442 470.201 755.016 466.525 754.512C466.713 763.169 467.002 771.82 466.985 780.481C436.497 780.998 405.976 780.194 375.493 779.767C369.073 772.796 362.12 766.279 355.321 759.68Q335.505 740.204 314.719 721.768Z" id="path103"/>
  <path fill="#F8C35C" transform="scale(0.542759 0.542759)" d="M428.95 756.928C428.459 755.685 428.113 754.44 427.915 753.114C427.409 749.725 428.146 745.821 430.252 743.069C432.497 740.137 436.18 738.549 439.792 738.238C444.891 737.801 448.401 739.919 452.151 742.994L452.205 744.277C449.005 746.383 444.806 745.229 441.321 746.971C436.443 749.409 433.372 754.025 428.95 756.928Z" id="path104"/>
  <path fill="#06113D" transform="scale(0.542759 0.542759)" d="M452.151 742.994C455.279 745.06 457.329 748.533 458.13 752.156C459.037 756.262 458.48 760.623 456.103 764.145C453.969 767.307 450.483 769.455 446.742 770.122C442.507 770.876 437.991 769.648 434.568 767.081C431.504 764.785 429.324 761.226 428.82 757.432C431.374 760.31 433.932 762.315 437.807 763.062Q438.503 763.195 439.21 763.255Q439.916 763.316 440.625 763.303Q441.334 763.291 442.038 763.206Q442.741 763.122 443.433 762.965Q444.124 762.809 444.796 762.582Q445.468 762.356 446.113 762.061Q446.758 761.767 447.369 761.408Q447.981 761.05 448.552 760.63C451.319 758.64 453.664 755.569 454.156 752.126Q454.228 751.613 454.251 751.094Q454.274 750.577 454.248 750.059Q454.221 749.541 454.144 749.028Q454.068 748.515 453.943 748.012Q453.818 747.509 453.645 747.02Q453.473 746.531 453.254 746.061Q453.035 745.591 452.772 745.144Q452.509 744.697 452.205 744.277L452.151 742.994Z" id="path105"/>
  <path fill="#F79B37" transform="scale(0.542759 0.542759)" d="M452.205 744.277Q452.509 744.697 452.772 745.144Q453.035 745.591 453.254 746.061Q453.473 746.531 453.645 747.02Q453.818 747.509 453.943 748.012Q454.068 748.515 454.144 749.028Q454.221 749.541 454.248 750.059Q454.274 750.577 454.251 751.095Q454.228 751.613 454.156 752.126C453.664 755.569 451.319 758.64 448.552 760.63Q447.981 761.049 447.369 761.408Q446.758 761.767 446.113 762.061Q445.468 762.355 444.796 762.582Q444.124 762.809 443.433 762.965Q442.741 763.122 442.038 763.206Q441.334 763.291 440.625 763.303Q439.916 763.316 439.21 763.255Q438.503 763.195 437.807 763.062C433.932 762.315 431.374 760.31 428.82 757.432L428.95 756.928C433.372 754.025 436.443 749.409 441.321 746.971C444.806 745.229 449.005 746.383 452.205 744.277Z" id="path106"/>
  <path fill="#06113D" transform="scale(0.542759 0.542759)" d="M383.126 748.597C384.073 746.209 385.134 744.02 386.978 742.183C389.4 739.772 392.538 738.323 395.997 738.504C400.703 738.75 403.82 741.129 406.824 744.484C408.933 745.208 410.441 748.261 411.336 750.154C411.955 751.465 412.41 752.832 412.843 754.213C411.464 759.783 409.352 765.394 404.126 768.46C400.724 770.456 396.522 770.895 392.741 769.834Q392.326 769.714 391.918 769.572Q391.51 769.43 391.11 769.267Q390.71 769.105 390.319 768.922Q389.927 768.739 389.546 768.536Q389.165 768.333 388.794 768.111Q388.424 767.888 388.066 767.647Q387.707 767.406 387.362 767.147Q387.016 766.888 386.685 766.611Q386.353 766.335 386.036 766.041Q385.719 765.748 385.418 765.438Q385.116 765.129 384.831 764.805Q384.546 764.48 384.278 764.141Q384.01 763.803 383.76 763.451Q383.51 763.098 383.278 762.734Q383.046 762.369 382.834 761.993Q382.621 761.617 382.428 761.231C380.636 757.703 380.536 754.221 381.901 750.517C382.202 749.701 382.444 749.164 383.126 748.597Z" id="path107"/>
  <path fill="#F79B37" transform="scale(0.542759 0.542759)" d="M407.833 747.638C408.616 750.961 408.544 754.306 406.746 757.324C404.861 760.489 401.196 762.554 397.646 763.225Q396.997 763.344 396.339 763.399Q395.681 763.454 395.02 763.445Q394.36 763.436 393.704 763.362Q393.048 763.288 392.402 763.151Q391.756 763.014 391.126 762.814Q390.497 762.615 389.89 762.355Q389.283 762.095 388.704 761.778Q388.125 761.46 387.58 761.087C386.469 760.312 385.508 759.323 384.56 758.361C389.14 755.164 394.279 751.717 399.589 749.907C402.142 749.037 405.904 749.506 407.833 747.638Z" id="path108"/>
  <path fill="#F8C35C" transform="scale(0.542759 0.542759)" d="M383.126 748.597C384.073 746.209 385.134 744.02 386.978 742.183C389.4 739.772 392.538 738.323 395.997 738.504C400.703 738.75 403.82 741.129 406.824 744.484L407.833 747.638C405.904 749.506 402.142 749.037 399.589 749.907C394.279 751.717 389.14 755.164 384.56 758.361C382.994 754.788 382.696 752.437 383.126 748.597Z" id="path109"/>
  <path fill="#142D54" transform="scale(0.542759 0.542759)" d="M510.425 722.234C523.908 723.204 537.775 722.696 551.301 722.797L622.433 722.989C643.814 723.022 665.177 722.98 686.504 724.626C668.388 730.004 663.446 733.374 654.078 749.95C652.441 752.847 650.763 756.471 648.144 758.574C648.089 756.816 648.046 754.994 647.763 753.259C646.569 745.942 641.145 741.185 635.603 736.949L633.148 737.838C627.752 737.383 625.294 738.123 621.181 741.54C621.825 739.402 623.137 738.078 624.201 736.212C622 738.134 619.503 740.951 617.019 742.36C614.624 746.855 613.631 751.645 615.157 756.622Q615.29 757.051 615.444 757.473Q615.598 757.895 615.773 758.308Q615.949 758.721 616.145 759.125Q616.341 759.529 616.557 759.923Q616.774 760.316 617.01 760.698Q617.246 761.08 617.501 761.45Q617.756 761.819 618.03 762.176Q618.303 762.532 618.595 762.873Q618.886 763.215 619.194 763.542Q619.503 763.868 619.827 764.179Q620.151 764.49 620.491 764.783Q620.831 765.077 621.185 765.353Q621.539 765.629 621.907 765.887Q622.275 766.144 622.655 766.383Q623.036 766.622 623.427 766.841Q623.819 767.06 624.222 767.259C628.019 769.114 631.54 769.124 635.632 768.958C648.703 767.171 662.339 769.054 675.513 768.19Q668.352 775.83 661.38 783.642C660.507 783.012 659.864 782.842 658.774 782.796C650.327 782.439 641.683 783.394 633.201 783.324L570.582 782.968C551.463 782.975 532.353 783.223 513.248 782.392C505.889 781.457 498.311 781.602 490.906 781.473C483.088 781.337 475.276 781.034 467.457 780.954L466.985 780.481C467.002 771.82 466.713 763.169 466.525 754.512C470.201 755.016 473.911 755.442 477.624 755.285L477.461 754.548C476.735 751.213 477.253 748.326 479.205 745.494Q479.558 744.977 479.964 744.501Q480.369 744.024 480.823 743.593Q481.276 743.162 481.772 742.78Q482.268 742.399 482.801 742.072Q483.335 741.745 483.9 741.475Q484.464 741.206 485.054 740.997Q485.644 740.789 486.253 740.643Q486.861 740.498 487.482 740.417C492.022 739.856 494.39 741.446 497.825 744.119C500.38 745.392 503.445 748.804 504.237 751.569C504.296 751.775 504.34 751.986 504.392 752.194C504.614 752.428 505.472 753.321 505.641 753.548C507.427 755.94 503.965 760.646 503.908 763.358C503.891 764.154 504.248 764.267 504.747 764.806C506.581 765.371 507.898 765.075 509.755 764.717C509.721 756.361 510.318 748.048 510.468 739.699C509.671 734.192 510.358 727.817 510.425 722.234Z" id="path110"/>
  <path fill="#0A1D45" transform="scale(0.542759 0.542759)" d="M617.019 742.36C618.662 739.415 621.173 737.201 624.405 736.153Q625.09 735.931 625.792 735.775Q626.495 735.62 627.21 735.533Q627.924 735.446 628.644 735.427Q629.364 735.409 630.082 735.46Q630.8 735.511 631.509 735.631Q632.219 735.751 632.914 735.938Q633.609 736.126 634.283 736.379Q634.957 736.632 635.603 736.949L633.148 737.838C627.752 737.383 625.294 738.123 621.181 741.54C621.825 739.402 623.137 738.078 624.201 736.212C622 738.134 619.503 740.951 617.019 742.36Z" id="path111"/>
  <path fill="#06113D" transform="scale(0.542759 0.542759)" d="M497.825 744.119C500.38 745.392 503.445 748.804 504.237 751.569C504.296 751.775 504.34 751.986 504.392 752.194C504.986 755.942 504.406 760.434 502.13 763.593Q501.761 764.096 501.343 764.56Q500.926 765.023 500.464 765.443Q500.003 765.864 499.502 766.236Q499.002 766.608 498.467 766.929Q497.932 767.25 497.368 767.517Q496.803 767.784 496.216 767.993Q495.628 768.202 495.022 768.352Q494.417 768.503 493.799 768.592C489.678 769.208 485.048 767.523 481.85 764.958C480.113 763.565 478.385 761.51 478.221 759.186C478.169 758.443 478.341 757.777 478.626 757.108C480.347 759.131 482.496 760.757 485 761.68C487.882 762.743 491.114 762.746 493.909 761.406Q494.374 761.183 494.815 760.914Q495.255 760.645 495.666 760.334Q496.078 760.023 496.456 759.672Q496.834 759.321 497.176 758.934Q497.517 758.547 497.818 758.128Q498.119 757.709 498.377 757.262Q498.634 756.815 498.846 756.345Q499.057 755.874 499.221 755.385C500.596 751.339 499.637 747.82 497.825 744.119Z" id="path112"/>
  <path fill="#F8C35C" transform="scale(0.542759 0.542759)" d="M477.624 755.285L477.461 754.548C476.735 751.213 477.253 748.326 479.205 745.494Q479.558 744.977 479.964 744.501Q480.369 744.024 480.823 743.593Q481.276 743.162 481.772 742.78Q482.268 742.399 482.801 742.072Q483.335 741.745 483.9 741.475Q484.464 741.206 485.054 740.997Q485.644 740.789 486.253 740.643Q486.861 740.498 487.482 740.417C492.022 739.856 494.39 741.446 497.825 744.119C499.637 747.82 500.596 751.339 499.221 755.385Q499.057 755.874 498.846 756.345Q498.634 756.815 498.377 757.262Q498.119 757.709 497.818 758.128Q497.517 758.547 497.176 758.934Q496.834 759.321 496.456 759.672Q496.078 760.023 495.666 760.334Q495.255 760.645 494.815 760.914Q494.374 761.183 493.909 761.406C491.114 762.746 487.882 762.743 485 761.68C482.496 760.757 480.347 759.131 478.626 757.108L477.624 755.285Z" id="path113"/>
  <path fill="#06113D" transform="scale(0.542759 0.542759)" d="M579.557 736.543C581.873 736.371 584.226 736.189 586.524 736.631Q587.301 736.785 588.058 737.017Q588.815 737.249 589.544 737.557Q590.274 737.866 590.968 738.247Q591.662 738.629 592.313 739.079Q592.964 739.529 593.566 740.044Q594.168 740.558 594.714 741.132Q595.26 741.705 595.745 742.331Q596.23 742.958 596.648 743.63C598.722 746.961 599.413 750.934 598.341 754.733C597.017 759.427 593.523 762.923 589.348 765.23C586.221 766.241 582.953 766.607 579.748 765.676C576.133 764.626 573.303 762.073 571.662 758.711C569.639 754.567 569.576 749.213 571.214 744.934C572.869 740.611 575.452 738.434 579.557 736.543Z" id="path114"/>
  <path fill="#F79B37" transform="scale(0.542759 0.542759)" d="M591.523 744.246C593.021 746.668 593.915 748.6 593.326 751.498C592.817 754.005 591.19 756.135 589.001 757.428Q588.629 757.646 588.238 757.825Q587.846 758.005 587.438 758.145Q587.031 758.285 586.612 758.384Q586.192 758.483 585.765 758.54Q585.338 758.597 584.908 758.612Q584.477 758.626 584.047 758.598Q583.617 758.57 583.192 758.499Q582.767 758.428 582.351 758.316C581.149 757.988 580.072 757.258 579.061 756.551L579.63 752.459C580.966 751.242 582.64 752.409 584.103 751.34C587.423 748.917 587.029 746.273 591.523 744.246Z" id="path115"/>
  <path fill="#F8C35C" transform="scale(0.542759 0.542759)" d="M579.061 756.551C577.37 754.698 576.215 752.359 576.067 749.83C575.921 747.315 576.865 744.707 578.641 742.914C580.259 741.28 582.411 740.451 584.706 740.542C587.595 740.658 589.592 742.265 591.523 744.246C587.029 746.273 587.423 748.917 584.103 751.34C582.64 752.409 580.966 751.242 579.63 752.459L579.061 756.551Z" id="path116"/>
  <path fill="#06113D" transform="scale(0.542759 0.542759)" d="M536.051 735.183C539.213 735.432 541.77 736.383 544.199 738.45C547.506 741.263 549.169 745.657 549.344 749.923Q549.363 750.377 549.36 750.831Q549.356 751.285 549.33 751.739Q549.303 752.193 549.254 752.644Q549.205 753.096 549.133 753.544Q549.061 753.993 548.966 754.437Q548.872 754.882 548.755 755.321Q548.639 755.76 548.5 756.193Q548.361 756.625 548.201 757.05Q548.041 757.475 547.859 757.892Q547.678 758.308 547.476 758.715Q547.273 759.122 547.051 759.518Q546.828 759.914 546.586 760.299Q546.344 760.683 546.083 761.055Q545.822 761.426 545.542 761.785Q545.263 762.143 544.965 762.486Q544.668 762.83 544.354 763.158C541.03 766.656 537.23 768.055 532.486 768.145C529.89 767.361 527.587 766.335 525.427 764.666C521.652 761.749 518.865 757.602 518.448 752.765Q518.375 751.97 518.383 751.172Q518.391 750.374 518.48 749.58Q518.568 748.787 518.737 748.007Q518.906 747.226 519.153 746.467Q519.4 745.708 519.723 744.978Q520.046 744.248 520.441 743.554Q520.836 742.861 521.3 742.211Q521.763 741.561 522.29 740.961C526.046 736.731 530.671 735.6 536.051 735.183Z" id="path117"/>
  <path fill="#F79B37" transform="scale(0.542759 0.542759)" d="M526.764 756.792C527.198 756.416 527.629 756.032 528.021 755.611C529.625 753.884 531.198 750.906 531.141 748.498C531.11 747.21 530.971 747.826 531.384 746.799C534.115 746.527 537.698 746.763 540.32 747.575C541.594 747.97 542.671 748.179 544.004 748.282C544.165 748.294 544.325 748.303 544.485 748.314C544.095 752.234 543.243 755.522 540.024 758.1Q539.656 758.399 539.259 758.658Q538.862 758.918 538.44 759.134Q538.018 759.351 537.576 759.523Q537.134 759.694 536.676 759.819Q536.219 759.943 535.75 760.02Q535.282 760.096 534.809 760.123Q534.335 760.151 533.862 760.128Q533.388 760.106 532.919 760.035C530.414 759.661 528.651 758.39 526.764 756.792Z" id="path118"/>
  <path fill="#F8C35C" transform="scale(0.542759 0.542759)" d="M526.764 756.792C525.802 755.724 524.853 754.441 524.293 753.112Q524.1 752.654 523.955 752.179Q523.81 751.704 523.713 751.216Q523.617 750.729 523.57 750.234Q523.524 749.74 523.527 749.243Q523.531 748.746 523.585 748.252Q523.639 747.758 523.743 747.273Q523.847 746.787 523.999 746.314Q524.151 745.841 524.351 745.386C525.524 742.684 528.004 740.491 530.77 739.522C533.302 738.634 536.033 738.765 538.424 739.992C541.907 741.778 543.259 744.777 544.485 748.314C544.325 748.303 544.165 748.294 544.004 748.282C542.671 748.179 541.594 747.97 540.32 747.575C537.698 746.763 534.115 746.527 531.384 746.799C530.971 747.826 531.11 747.21 531.141 748.498C531.198 750.906 529.625 753.884 528.021 755.611C527.629 756.032 527.198 756.416 526.764 756.792Z" id="path119"/>
  <path fill="#FAFBFB" transform="scale(0.542759 0.542759)" d="M612.535 244.718C627.524 245.055 640.812 249.015 652.229 259.051C663.02 268.536 670.845 282.133 671.607 296.654C672.386 311.526 667.35 326.934 657.212 337.961C646.294 349.839 631.73 355.885 615.765 356.556C601.427 356.748 588.552 352.887 577.633 343.367Q576.511 342.394 575.437 341.367Q574.364 340.34 573.342 339.262Q572.32 338.183 571.352 337.057Q570.384 335.93 569.473 334.757Q568.561 333.584 567.708 332.367Q566.855 331.151 566.063 329.895Q565.27 328.638 564.54 327.344Q563.81 326.051 563.144 324.723Q562.478 323.395 561.878 322.036Q561.278 320.677 560.745 319.29Q560.213 317.903 559.748 316.492Q559.284 315.081 558.889 313.649Q558.495 312.217 558.171 310.767Q557.847 309.317 557.594 307.853Q557.341 306.39 557.16 304.915Q556.979 303.441 556.871 301.959C555.982 288.527 560.937 274.997 569.806 264.926C581.117 252.084 595.636 245.755 612.535 244.718Z" id="path120"/>
  <path fill="#F79B37" transform="scale(0.542759 0.542759)" d="M609.298 257.66C619.533 256.279 630.166 258.26 638.821 263.963Q639.644 264.504 640.439 265.084Q641.234 265.665 642 266.284Q642.766 266.904 643.499 267.56Q644.233 268.217 644.934 268.909Q645.634 269.601 646.3 270.327Q646.965 271.052 647.594 271.81Q648.222 272.568 648.812 273.356Q649.402 274.145 649.953 274.961Q650.504 275.777 651.013 276.62Q651.522 277.463 651.989 278.33Q652.456 279.196 652.88 280.085Q653.303 280.974 653.682 281.883Q654.061 282.792 654.395 283.718Q654.729 284.645 655.016 285.587Q655.303 286.529 655.543 287.483Q655.783 288.438 655.976 289.404C658.113 300.618 655.612 313.168 649.127 322.579C642.54 332.138 632.834 337.967 621.501 339.972C610.142 341.408 599.113 338.958 589.806 332.105C581.074 325.675 574.816 315.462 573.259 304.71Q573.108 303.679 573.007 302.642Q572.907 301.604 572.857 300.564Q572.807 299.523 572.809 298.481Q572.81 297.439 572.863 296.398Q572.916 295.357 573.019 294.32Q573.122 293.283 573.277 292.253Q573.431 291.222 573.635 290.2Q573.84 289.178 574.094 288.168Q574.349 287.157 574.652 286.16Q574.956 285.163 575.308 284.183Q575.66 283.202 576.059 282.24Q576.459 281.277 576.906 280.335Q577.352 279.394 577.844 278.475Q578.336 277.557 578.872 276.663Q579.409 275.77 579.988 274.904Q580.568 274.038 581.189 273.201C588.301 263.815 597.816 259.267 609.298 257.66Z" id="path121"/>
  <path fill="#06113D" transform="scale(0.542759 0.542759)" d="M612.027 277.595C616.878 277.17 621.59 277.18 626.04 279.467C630.867 281.947 634.248 286.415 635.832 291.555C637.742 297.756 637.289 305.083 633.995 310.744C630.617 316.549 625.444 319.394 619.117 320.917Q618.244 321.045 617.364 321.104Q616.484 321.164 615.601 321.154Q614.719 321.145 613.84 321.067Q612.962 320.989 612.092 320.843Q611.222 320.697 610.365 320.484Q609.509 320.271 608.673 319.992Q607.836 319.713 607.023 319.369Q606.21 319.026 605.427 318.62Q604.943 318.37 604.472 318.096Q604.001 317.822 603.545 317.524Q603.089 317.225 602.648 316.904Q602.208 316.583 601.785 316.24Q601.362 315.896 600.957 315.532Q600.552 315.167 600.166 314.782Q599.78 314.397 599.415 313.993Q599.049 313.589 598.705 313.166Q598.361 312.744 598.039 312.304Q597.717 311.865 597.418 311.409Q597.119 310.953 596.843 310.483Q596.568 310.013 596.317 309.529Q596.067 309.045 595.841 308.549Q595.615 308.053 595.416 307.546Q595.216 307.039 595.042 306.522Q594.869 306.006 594.722 305.481C593.075 299.595 593.811 292.813 596.91 287.52C600.379 281.596 605.672 279.211 612.027 277.595Z" id="path122"/>
  <path fill="#FAFBFB" transform="scale(0.542759 0.542759)" d="M611.6 281.065C613.189 280.992 614.857 280.817 616.338 281.513C618.429 282.496 620.186 284.221 620.987 286.408Q621.115 286.753 621.209 287.109Q621.302 287.465 621.36 287.828Q621.418 288.191 621.441 288.558Q621.463 288.926 621.449 289.293Q621.436 289.661 621.386 290.026Q621.336 290.39 621.251 290.748Q621.166 291.106 621.046 291.454Q620.926 291.802 620.773 292.136C619.585 294.67 617.499 295.618 615.004 296.549C613.811 296.579 612.658 296.593 611.477 296.391C609.247 296.008 607.121 294.808 605.9 292.856C604.872 291.214 604.703 289.198 605.266 287.363C606.255 284.145 608.76 282.534 611.6 281.065Z" id="path123"/>
  <path fill="#FAFBFB" transform="scale(0.542759 0.542759)" d="M405.938 244.703C406.14 244.68 406.342 244.65 406.545 244.633C421.605 243.342 438.008 249.228 449.504 258.859C460.116 267.749 467.578 281.8 468.77 295.618C470.057 310.537 464.721 325.699 455.039 337.009C444.683 349.106 431.844 354.915 416.121 356.223C416.003 356.247 415.886 356.283 415.766 356.296C401.692 357.775 386.44 352.829 375.377 344.168Q374.267 343.289 373.2 342.357Q372.134 341.425 371.114 340.443Q370.094 339.461 369.123 338.43Q368.152 337.399 367.232 336.322Q366.312 335.245 365.446 334.125Q364.579 333.005 363.768 331.844Q362.957 330.683 362.203 329.484Q361.45 328.286 360.755 327.052Q360.06 325.818 359.426 324.551Q358.792 323.285 358.221 321.989Q357.649 320.694 357.141 319.372Q356.632 318.05 356.189 316.705Q355.746 315.36 355.368 313.995Q354.99 312.631 354.679 311.249Q354.368 309.867 354.125 308.472Q353.881 307.077 353.706 305.672Q353.555 304.318 353.471 302.957Q353.388 301.597 353.372 300.234Q353.357 298.871 353.409 297.51Q353.461 296.148 353.581 294.79Q353.701 293.433 353.889 292.083Q354.076 290.733 354.331 289.394Q354.585 288.055 354.906 286.731Q355.227 285.406 355.613 284.099Q356 282.792 356.451 281.506Q356.902 280.22 357.416 278.958Q357.931 277.696 358.507 276.461Q359.084 275.226 359.721 274.022Q360.359 272.817 361.056 271.646Q361.752 270.475 362.506 269.339Q363.26 268.204 364.07 267.108Q364.88 266.012 365.743 264.957C375.735 252.569 390.436 246.394 405.938 244.703Z" id="path124"/>
  <path fill="#F79B37" transform="scale(0.542759 0.542759)" d="M410.319 259.211C420.28 259.359 428.554 261.508 436.394 267.942C444.921 274.939 451.26 285.727 452.204 296.811C453.115 307.512 449.121 318.529 442.149 326.612C434.346 335.656 424.212 340.006 412.476 340.872C401.421 341.014 391.478 337.79 383.018 330.511C374.879 323.508 370.417 313.256 369.712 302.625C368.988 291.695 372.725 281.81 379.967 273.685C387.969 264.706 398.405 259.968 410.319 259.211Z" id="path125"/>
  <path fill="#142D54" transform="scale(0.542759 0.542759)" d="M398.342 286.292C398.456 289.176 398.812 291.849 401.035 293.922C402.064 294.882 403.303 295.734 404.55 296.382C402.265 301.265 404.469 309.985 406.238 314.9C407.008 317.039 408.051 319.258 409.225 321.201C405.273 320.569 401.924 319.619 398.566 317.361Q398.089 317.043 397.63 316.7Q397.17 316.358 396.729 315.992Q396.288 315.626 395.866 315.238Q395.444 314.85 395.043 314.44Q394.642 314.031 394.262 313.601Q393.883 313.172 393.526 312.723Q393.169 312.275 392.836 311.808Q392.503 311.342 392.195 310.859Q391.886 310.376 391.603 309.878Q391.32 309.379 391.062 308.867Q390.805 308.355 390.575 307.83Q390.345 307.305 390.142 306.769Q389.939 306.233 389.764 305.687Q389.589 305.141 389.442 304.587Q389.296 304.033 389.178 303.472Q389.061 302.911 388.972 302.345C388.018 296.224 389.643 291.399 393.159 286.431C394.914 286.853 396.582 286.518 398.342 286.292Z" id="path126"/>
  <path fill="#06113D" transform="scale(0.542759 0.542759)" d="M404.401 277.572C410.155 275.698 415.961 275.998 421.44 278.691Q421.969 278.951 422.485 279.238Q423 279.525 423.5 279.837Q424 280.15 424.484 280.488Q424.967 280.825 425.433 281.187Q425.899 281.549 426.345 281.934Q426.792 282.32 427.219 282.727Q427.645 283.134 428.05 283.563Q428.455 283.991 428.838 284.44Q429.221 284.889 429.58 285.356Q429.94 285.824 430.275 286.309Q430.61 286.795 430.92 287.296Q431.23 287.798 431.514 288.315Q431.799 288.832 432.056 289.362Q432.313 289.893 432.543 290.436Q432.773 290.979 432.975 291.533Q433.177 292.087 433.351 292.651Q433.508 293.174 433.638 293.703Q433.769 294.233 433.874 294.769Q433.978 295.304 434.056 295.844Q434.134 296.385 434.185 296.928Q434.236 297.471 434.261 298.016Q434.285 298.561 434.283 299.107Q434.28 299.653 434.251 300.197Q434.222 300.742 434.166 301.285Q434.11 301.828 434.027 302.367Q433.944 302.907 433.835 303.441Q433.726 303.976 433.59 304.504Q433.455 305.033 433.293 305.554Q433.132 306.076 432.945 306.588Q432.758 307.101 432.547 307.604Q432.335 308.107 432.099 308.599Q431.862 309.09 431.602 309.57C428.546 315.169 423.046 318.845 416.973 320.474C414.395 321.166 411.881 321.398 409.225 321.201C408.051 319.258 407.008 317.039 406.238 314.9C404.469 309.985 402.265 301.265 404.55 296.382C403.303 295.734 402.064 294.882 401.035 293.922C398.812 291.849 398.456 289.176 398.342 286.292C396.582 286.518 394.914 286.853 393.159 286.431C396.291 282.317 399.505 279.461 404.401 277.572Z" id="path127"/>
  <path fill="#FAFBFB" transform="scale(0.542759 0.542759)" d="M408.667 280.231C411.18 281.342 413.01 282.326 414.134 284.954C415.018 287.02 415.147 289.42 414.262 291.503C413.384 293.572 411.571 295.054 409.512 295.868C407.898 296.506 406.254 296.447 404.55 296.382C403.303 295.734 402.064 294.882 401.035 293.922C398.812 291.849 398.456 289.176 398.342 286.292C398.699 285.537 399.131 284.884 399.656 284.236C402.055 281.269 405.04 280.677 408.667 280.231Z" id="path128"/>
  <defs id="defs129">
    <linearGradient id="gradient_4" gradientUnits="userSpaceOnUse" x1="628.77197" y1="437.52429" x2="637.68689" y2="260.63278">
      <stop offset="0" stop-color="#044F6E" id="stop128"/>
      <stop offset="1" stop-color="#0F7E8E" id="stop129"/>
    </linearGradient>
  </defs>
  <path fill="url(#gradient_4)" transform="scale(0.542759 0.542759)" d="M681.673 238.863C690.153 236.004 708.249 238.857 718.154 237.674C719.523 236.635 719.429 235.922 719.85 234.293C720.746 262.621 720.007 291.186 719.992 319.544L720.014 338.871C720.08 359.196 719.464 379.721 720.15 400.024C720.075 408.855 719.006 425.839 720.275 433.691C720.717 434.026 721.047 434.329 721.58 434.502Q629.432 435.069 537.284 434.453C543.096 426.385 548.145 417.775 553.619 409.477C557.176 403.14 561.261 397.014 565.013 390.782C569.96 382.563 574.64 373.361 580.904 366.106C592.003 371.773 602.62 375.663 615.255 375.631C632.67 375.587 649.624 367.976 661.815 355.699C681.544 335.831 682.075 318.588 682.025 292.449L681.921 258.306C681.601 251.859 681.742 245.322 681.673 238.863Z" id="path129"/>
  <path fill="#142D54" transform="scale(0.542759 0.542759)" d="M681.673 238.863C690.153 236.004 708.249 238.857 718.154 237.674C719.523 236.635 719.429 235.922 719.85 234.293C720.746 262.621 720.007 291.186 719.992 319.544L720.014 338.871C718.89 339.184 717.988 339.366 716.82 339.36C715.299 335.803 716.092 274.829 716.053 266.049C711.829 265.211 707.459 264.362 703.404 262.899C697.197 260.528 688.553 258.846 681.921 258.306C681.601 251.859 681.742 245.322 681.673 238.863Z" id="path130"/>
  <path fill="#077A8E" transform="scale(0.542759 0.542759)" d="M681.673 238.863C688.994 239.194 696.409 239.041 703.734 238.833L703.404 262.899C697.197 260.528 688.553 258.846 681.921 258.306C681.601 251.859 681.742 245.322 681.673 238.863Z" id="path131"/>
  <path fill="#79C5C8" transform="scale(0.542759 0.542759)" d="M681.921 258.306C688.553 258.846 697.197 260.528 703.404 262.899C702.228 279.816 703.046 297.142 702.973 314.118C702.941 321.812 703.582 330.778 701.741 338.254C697.9 353.848 683.245 371.924 671.324 382.272C656.339 395.282 631.101 407.274 611.086 409.333C601.152 410.355 590.632 409.596 580.622 409.712C573.255 409.798 561.761 410.917 554.77 409.867C554.251 409.789 554.05 409.672 553.619 409.477C557.176 403.14 561.261 397.014 565.013 390.782C569.96 382.563 574.64 373.361 580.904 366.106C592.003 371.773 602.62 375.663 615.255 375.631C632.67 375.587 649.624 367.976 661.815 355.699C681.544 335.831 682.075 318.588 682.025 292.449L681.921 258.306Z" id="path132"/>
  <path fill="#0E6A83" transform="scale(0.542759 0.542759)" d="M303.545 232.482C303.535 231.441 303.609 230.751 303.974 229.773C308.247 228.884 313.375 229.417 317.766 229.436Q331.298 229.616 344.83 229.401C344.848 233.105 344.75 236.855 344.999 240.549C345.127 247.519 345.503 254.787 344.931 261.73L344.893 264.99C344.953 274.417 345.055 283.795 345.573 293.212C343.52 314.038 345.631 335.474 359.302 352.195Q360.327 353.425 361.411 354.604Q362.495 355.783 363.635 356.907Q364.776 358.031 365.97 359.098Q367.164 360.164 368.409 361.171Q369.654 362.178 370.948 363.122Q372.241 364.067 373.579 364.947Q374.917 365.827 376.296 366.64Q377.676 367.453 379.093 368.197Q380.511 368.942 381.964 369.616Q383.416 370.29 384.9 370.891Q386.384 371.493 387.896 372.021Q389.407 372.55 390.943 373.003Q392.479 373.457 394.035 373.834Q395.591 374.212 397.164 374.512Q398.737 374.813 400.323 375.036Q401.908 375.259 403.503 375.404C417.104 376.681 435.378 373.202 446.528 365.016C455.828 379.599 464.479 394.657 473.409 409.475C478.681 417.685 483.335 426.283 488.59 434.521L396.894 434.466C379.663 434.493 362.366 434.222 345.141 434.594C331.28 433.834 316.737 434.31 302.846 434.654C302.811 423.87 302.648 413.07 302.963 402.29L303.526 319.554C303.115 290.552 303.602 261.492 303.545 232.482Z" id="path133"/>
  <path fill="#79C5C8" transform="scale(0.542759 0.542759)" d="M311.821 240.345Q328.239 240.544 344.657 240.455C344.604 247.501 344.32 254.712 344.931 261.73L344.893 264.99C344.953 274.417 345.055 283.795 345.573 293.212C343.52 314.038 345.631 335.474 359.302 352.195Q360.327 353.425 361.411 354.604Q362.495 355.783 363.635 356.907Q364.776 358.031 365.97 359.098Q367.164 360.164 368.409 361.171Q369.654 362.178 370.948 363.122Q372.241 364.067 373.579 364.947Q374.917 365.827 376.296 366.64Q377.676 367.453 379.093 368.197Q380.511 368.942 381.964 369.616Q383.416 370.29 384.9 370.891Q386.384 371.493 387.896 372.021Q389.407 372.55 390.943 373.003Q392.479 373.457 394.035 373.834Q395.591 374.212 397.164 374.512Q398.737 374.813 400.323 375.036Q401.908 375.259 403.503 375.404C417.104 376.681 435.378 373.202 446.528 365.016C455.828 379.599 464.479 394.657 473.409 409.475C472.91 409.728 472.865 409.782 472.23 409.92C467.351 410.981 441.286 409.841 434.212 409.78C424.99 409.7 415.63 409.765 406.475 408.529C375.371 404.33 354.986 385.724 333.694 364.653C326.475 357.509 319.793 349.657 311.696 343.487C311.359 331.445 311.912 319.248 311.929 307.19L311.821 240.345Z" id="path134"/>
  <path fill="#142D54" transform="scale(0.542759 0.542759)" d="M516.483 469.618Q568.369 470.367 620.253 469.528L656.347 469.131C663.933 469.05 671.834 468.591 679.384 469.375C660.967 497.856 640.346 525.597 620.917 553.46C617.18 558.819 613.859 564.455 610.139 569.825C604.486 577.987 598.488 585.925 592.991 594.194C588.155 601.469 583.626 608.954 578.677 616.153C571.352 626.807 563.355 636.962 555.894 647.508C549.728 656.225 544.022 665.257 537.791 673.933C532.943 680.684 527.508 687.104 522.857 693.977C518.917 699.8 516.216 707.046 511.777 712.413C511.188 711.031 510.943 710.645 511.113 709.113C512.069 703.406 511.611 696.944 511.589 691.156L511.436 662.397L511.162 662.314C512.041 656.917 511.325 642.622 511.136 636.55L511.355 636.471C511.14 629.33 511.185 622.168 511.129 615.024L511.352 614.934C510.29 607.243 511.61 598.039 511.086 590.022Q510.853 579.032 511.036 568.042C511.77 560.166 511.326 551.811 511.152 543.892L511.363 543.845Q511.355 532.456 511.014 521.073C511.268 512.08 511.016 503.044 511.197 494.04C512.095 486.177 511.444 477.556 511.456 469.61L516.483 469.618Z" id="path135"/>
  <path fill="#DE4D49" transform="scale(0.542759 0.542759)" d="M511.355 636.471L539.374 636.571C535.168 645.223 529.634 654.622 523.863 662.327L511.436 662.397L511.162 662.314C512.041 656.917 511.325 642.622 511.136 636.55L511.355 636.471Z" id="path136"/>
  <path fill="#DE4D49" transform="scale(0.542759 0.542759)" d="M511.086 590.022L571.034 590.398C565.634 598.47 559.835 606.459 554.8 614.753Q533.077 615.016 511.352 614.934C510.29 607.243 511.61 598.039 511.086 590.022Z" id="path137"/>
  <path fill="#DE4D49" transform="scale(0.542759 0.542759)" d="M511.363 543.845L602.975 543.825C598.228 551.979 593.135 560.446 587.586 568.075C562.111 567.985 536.497 567.424 511.036 568.042C511.77 560.166 511.326 551.811 511.152 543.892L511.363 543.845Z" id="path138"/>
  <path fill="#DE4D49" transform="scale(0.542759 0.542759)" d="M511.197 494.04L633.229 494.44C627.988 503.259 622.85 512.163 617.216 520.739C581.844 521.178 546.359 520.167 511.014 521.073C511.268 512.08 511.016 503.044 511.197 494.04Z" id="path139"/>
  <path fill="#79C5C8" transform="scale(0.542759 0.542759)" d="M302.846 434.654C316.737 434.31 331.28 433.834 345.141 434.594C333.696 435.32 322.008 434.958 310.538 435.007C312.776 437.488 314.498 438.806 314.425 442.364C320.223 452.485 328.599 461.954 335.683 471.241C337.648 469.796 339.08 469.575 341.471 469.239L341.817 469.499Q424.941 470.076 508.065 469.526L511.456 469.61C511.444 477.556 512.095 486.177 511.197 494.04C511.016 503.044 511.268 512.08 511.014 521.073Q511.355 532.456 511.363 543.845L511.152 543.892C511.326 551.811 511.77 560.166 511.036 568.042Q510.853 579.033 511.086 590.022C511.61 598.039 510.29 607.243 511.352 614.934L511.129 615.024C511.185 622.168 511.14 629.33 511.355 636.471L511.136 636.55C511.325 642.622 512.041 656.917 511.162 662.314L511.436 662.397L511.589 691.156C511.611 696.944 512.069 703.406 511.113 709.113C510.943 710.645 511.188 711.031 511.777 712.413C508.797 712.149 505.729 712.178 502.735 712.085C479.322 710.723 455.39 711.493 431.924 711.472L304.406 711.145C302.018 710.908 287.885 696.345 285.096 693.701L284.891 546.291C284.865 520.284 283.905 493.979 284.906 468.012C283.199 465.11 280.221 462.49 277.887 460.092C276.541 458.234 274.812 456.173 273.923 454.066C273.411 452.853 273.516 452.711 273.969 451.545L274.53 451.326L274.358 434.774C283.825 435.05 293.384 435.104 302.846 434.654Z" id="path140"/>
  <path fill="#077A8E" transform="scale(0.542759 0.542759)" d="M303.998 663.182L350.018 662.974C350.017 672.52 349.93 682.075 350.053 691.62Q327.189 691.493 304.327 691.865Q304.036 677.525 303.998 663.182Z" id="path141"/>
  <path fill="#077A8E" transform="scale(0.542759 0.542759)" d="M303.954 623.067C319.288 623.002 334.687 623.264 350.009 622.717L350.065 651.596L303.975 651.78C304.078 642.212 303.97 632.635 303.954 623.067Z" id="path142"/>
  <path fill="#FAFBFB" transform="scale(0.542759 0.542759)" d="M293.991 485.941C297.086 490.04 300.898 493.576 304.163 497.558C304.815 510.07 304.05 522.961 304.022 535.523L303.954 623.067C303.97 632.635 304.078 642.212 303.975 651.78L303.998 663.182Q304.036 677.525 304.327 691.865C301.058 692.176 297.615 691.976 294.324 691.981Q294.723 588.96 293.991 485.941Z" id="path143"/>
  <path fill="#FAFBFB" transform="scale(0.542759 0.542759)" d="M302.846 434.654C316.737 434.31 331.28 433.834 345.141 434.594C333.696 435.32 322.008 434.958 310.538 435.007C312.776 437.488 314.498 438.806 314.425 442.364C320.223 452.485 328.599 461.954 335.683 471.241C337.648 469.796 339.08 469.575 341.471 469.239L341.817 469.499C346.487 476.058 351.756 482.201 356.622 488.618C361.354 494.857 365.687 501.401 370.316 507.718C375.893 515.329 381.736 522.739 387.238 530.407C397.447 544.632 407.696 558.906 417.553 573.375C422.358 580.429 426.838 587.699 431.688 594.727Q449.983 621.267 468.779 647.454L493.87 682.872C499.18 690.342 507.829 701.102 511.113 709.113C510.943 710.645 511.188 711.031 511.777 712.413C508.797 712.149 505.729 712.178 502.735 712.085C498.176 707.464 494.012 702.327 489.716 697.455Q478.523 684.973 467.513 672.329C452.11 654.722 436.308 637.418 420.703 619.985C375.388 569.365 329.217 519.537 284.906 468.012C283.199 465.11 280.221 462.49 277.887 460.092C276.541 458.234 274.812 456.173 273.923 454.066C273.411 452.853 273.516 452.711 273.969 451.545L274.53 451.326L274.358 434.774C283.825 435.05 293.384 435.104 302.846 434.654Z" id="path144"/>
  <path fill="#142D54" transform="scale(0.542759 0.542759)" d="M302.846 434.654C316.737 434.31 331.28 433.834 345.141 434.594C333.696 435.32 322.008 434.958 310.538 435.007C312.776 437.488 314.498 438.806 314.425 442.364C312.958 440.802 312.287 440.682 310.202 440.618C300.431 440.319 290.532 440.837 280.756 441.034C280.712 445.854 280.797 450.712 280.573 455.526C278.422 454.203 276.945 452.297 274.53 451.326L274.358 434.774C283.825 435.05 293.384 435.104 302.846 434.654Z" id="path145"/>
  <path fill="#0A1D45" transform="scale(0.542759 0.542759)" d="M273.969 451.545L274.53 451.326C276.945 452.297 278.422 454.203 280.573 455.526C289.964 463.514 297.456 474.058 305.719 483.177L370.045 555.32L450.95 645.548C464.641 660.784 478.945 675.181 491.662 691.309C488.117 684.003 483.011 677.249 478.418 670.567C468.88 656.687 458.881 643.154 449.278 629.329C412.271 576.053 375.858 522.215 335.683 471.241C337.648 469.796 339.08 469.575 341.471 469.239L341.817 469.499C346.487 476.058 351.756 482.201 356.622 488.618C361.354 494.857 365.687 501.401 370.316 507.718C375.893 515.329 381.736 522.739 387.238 530.407C397.447 544.632 407.696 558.906 417.553 573.375C422.358 580.429 426.838 587.699 431.688 594.727Q449.983 621.267 468.779 647.454L493.87 682.872C499.18 690.342 507.829 701.102 511.113 709.113C510.943 710.645 511.188 711.031 511.777 712.413C508.797 712.149 505.729 712.178 502.735 712.085C498.176 707.464 494.012 702.327 489.716 697.455Q478.523 684.973 467.513 672.329C452.11 654.722 436.308 637.418 420.703 619.985C375.388 569.365 329.217 519.537 284.906 468.012C283.199 465.11 280.221 462.49 277.887 460.092C276.541 458.234 274.812 456.173 273.923 454.066C273.411 452.853 273.516 452.711 273.969 451.545Z" id="path146"/>
  <path fill="#1E4E74" transform="scale(0.542759 0.542759)" d="M508.065 469.526L511.456 469.61C511.444 477.556 512.095 486.177 511.197 494.04C511.016 503.044 511.268 512.08 511.014 521.073Q511.355 532.456 511.363 543.845L511.152 543.892C511.326 551.811 511.77 560.166 511.036 568.042Q510.853 579.033 511.086 590.022C511.61 598.039 510.29 607.243 511.352 614.934L511.129 615.024C511.185 622.168 511.14 629.33 511.355 636.471L511.136 636.55C511.325 642.622 512.041 656.917 511.162 662.314L511.436 662.397L511.589 691.156C511.611 696.944 512.069 703.406 511.113 709.113C507.829 701.102 499.18 690.342 493.87 682.872L468.779 647.454Q449.983 621.267 431.688 594.727C426.838 587.699 422.358 580.429 417.553 573.375C407.696 558.906 397.447 544.632 387.238 530.407C381.736 522.739 375.893 515.329 370.316 507.718C365.687 501.401 361.354 494.857 356.622 488.618C351.756 482.201 346.487 476.058 341.817 469.499Q424.941 470.076 508.065 469.526Z" id="path147"/>
  <path fill="#F16A3E" transform="scale(0.542759 0.542759)" d="M484.141 636.592L511.136 636.55C511.325 642.622 512.041 656.917 511.162 662.314L499.699 662.217Q491.828 649.46 484.141 636.592Z" id="path148"/>
  <path fill="#F16A3E" transform="scale(0.542759 0.542759)" d="M454.293 590.086C473.164 589.519 492.204 589.937 511.086 590.022C511.61 598.039 510.29 607.243 511.352 614.934L511.129 615.024L470.865 614.924C464.981 606.974 459.747 598.345 454.293 590.086Z" id="path149"/>
  <path fill="#F16A3E" transform="scale(0.542759 0.542759)" d="M423.211 543.492L481.746 543.608C491.376 543.627 501.607 542.919 511.152 543.892C511.326 551.811 511.77 560.166 511.036 568.042C486.719 568.333 462.371 568.075 438.051 568.05C432.785 560.182 427.673 551.844 423.211 543.492Z" id="path150"/>
  <path fill="#F16A3E" transform="scale(0.542759 0.542759)" d="M511.197 494.04C511.016 503.044 511.268 512.08 511.014 521.073C477.104 521.697 443.014 521.327 409.093 521.088L392.246 494.195L511.197 494.04Z" id="path151"/>
</svg>